<?xml version="1.0" standalone="no"?>
<!DOCTYPE svg PUBLIC "-//W3C//DTD SVG 1.1//EN" "http://www.w3.org/Graphics/SVG/1.1/DTD/svg11.dtd" >
<svg xmlns="http://www.w3.org/2000/svg">
<metadata>Generated by IcoMoon</metadata>
<defs>
<font id="icomoon" horiz-adv-x="1024">
<font-face units-per-em="1024" ascent="960" descent="-64" />
<missing-glyph horiz-adv-x="1024" />
<glyph unicode="&#x20;" horiz-adv-x="512" d="" />
<glyph unicode="&#xe900;" glyph-name="keyboard_arrow_up" d="M316 280.667l-60 60 256 256 256-256-60-60-196 196z" />
<glyph unicode="&#xe901;" glyph-name="keyboard_arrow_right" d="M366 230.667l196 196-196 196 60 60 256-256-256-256z" />
<glyph unicode="&#xe902;" glyph-name="keyboard_arrow_left" d="M658 230.667l-60-60-256 256 256 256 60-60-196-196z" />
<glyph unicode="&#xe903;" glyph-name="keyboard_arrow_down" d="M316 572.667l196-196 196 196 60-60-256-256-256 256z" />
<glyph unicode="&#xe904;" glyph-name="moon-fill, night" d="M788.256 250.112c-262.016 0-474.24 212.384-474.24 474.24 0 86.24 24.736 166.016 64.992 235.616-218.368-62.976-379.008-261.984-379.008-500.608 0-288.992 234.24-523.36 523.264-523.36 238.624 0 437.76 160.736 500.736 379.008-69.76-40.128-149.504-64.896-235.744-64.896z" />
<glyph unicode="&#xe905;" glyph-name="moon-stroke, night1" d="M188.64 667.264c27.136-286.688 256-515.488 542.624-542.496-61.12-38.752-132.864-60.736-208-60.736-218.016-0.032-395.264 177.216-395.264 395.296 0 75.104 22.016 146.784 60.64 207.936zM379.008 960c-218.368-63.008-379.008-262.048-379.008-500.672 0-289.088 234.24-523.328 523.264-523.328 238.624 0 437.76 160.736 500.736 379.008-69.76-40.256-149.504-64.992-235.744-64.992-262.016 0-474.24 212.448-474.24 474.304-0.032 86.24 24.736 165.984 64.992 235.68v0z" />
<glyph unicode="&#xe906;" glyph-name="translate" d="M316.518 646.333h-10.7l-19.995-100h50.69l-19.995 100zM720.96 446.332c10.795-28.996 25.152-52.471 41.041-72.444 15.889 19.972 31.915 43.447 42.709 72.444h-83.75zM863.667 723h-310.473l64.738-519.463c1.143-21.248-4.663-41.25-18.53-56.913l-109.632-125.291h373.897c41.357 0 74.999 33.643 74.999 74.999v550.001c0 41.356-33.643 76.666-74.999 76.666zM863.667 446.332h-6.677c-14.225-45.636-36.783-81.348-60.228-109.5 18.368-16.794 38.003-30.566 57.527-45.99 10.769-8.619 12.527-24.341 3.883-35.132-8.602-10.778-24.384-12.523-35.132-3.883-21.214 16.742-41.126 30.763-61.039 49.033-19.917-18.27-38.161-32.29-59.375-49.033-10.748-8.64-26.53-6.895-35.132 3.883-8.644 10.79-6.886 26.513 3.878 35.132 19.524 15.424 37.5 29.197 55.863 45.99-23.445 28.151-44.339 63.863-58.56 109.5h-6.677c-13.82 0-24.998 11.183-24.998 25.003 0 13.815 11.179 24.998 24.998 24.998h74.999v25.003c0 13.816 11.183 24.998 25.003 24.998 13.815 0 24.998-11.182 24.998-24.998v-25.003h76.668c13.815 0 24.998-11.183 24.998-24.998 0-13.82-11.183-25.003-24.998-25.003zM492.275 808.969c-4.663 37.452-36.672 65.698-74.415 65.698h-257.527c-41.356 0-75-33.644-75-75v-553.335c0-41.357 33.644-74.999 75-74.999 149.45 0 256.962 0 394.252 0 7.292 8.337 13.406 13.559 13.666 24.439 0.060 2.726-75.639 610.49-75.977 613.197zM391.907 396.821c-13.257-2.726-26.685 5.879-29.418 19.605l-15.978 79.906h-70.685l-15.978-79.906c-2.685-13.525-15.724-22.413-29.419-19.605-13.525 2.709-22.315 15.868-19.605 29.419l49.999 250c2.343 11.67 12.598 20.093 24.512 20.093h51.667c11.913 0 22.168-8.423 24.512-20.093l50-250c2.71-13.551-6.078-26.709-19.605-29.419zM377.437 121.335l4.29-34.304c2.86-22.972 18.123-46.396 43.23-58.095 47.38 52.16 18.716 20.604 83.932 92.399h-131.452z" />
<glyph unicode="&#xe907;" d="M1024 448c0-282.77-229.23-512-512-512s-512 229.23-512 512c0 282.77 229.23 512 512 512s512-229.23 512-512z" />
<glyph unicode="&#xe908;" d="M806.789 525.575c42.844 0 77.573-34.732 77.573-77.575 0-42.844-34.729-77.578-77.573-77.578s-77.578 34.734-77.578 77.578c0 42.843 34.734 77.575 77.578 77.575z" />
<glyph unicode="&#xe909;" d="M512 525.575c42.844 0 77.573-34.732 77.573-77.575 0-42.844-34.729-77.578-77.573-77.578s-77.575 34.734-77.575 77.578c0 42.843 34.732 77.575 77.575 77.575z" />
<glyph unicode="&#xe90a;" d="M217.213 525.575c42.844 0 77.575-34.732 77.575-77.575 0-42.844-34.732-77.578-77.575-77.578s-77.576 34.734-77.576 77.578c0 42.843 34.732 77.575 77.576 77.575z" />
<glyph unicode="&#xe90b;" glyph-name="alert" d="M943.462 377.251l-76.668 291.636c-22.469 85.437-71.309 160.481-138.751 213.203s-149.615 80.097-233.46 77.773c-83.845-2.324-164.549-34.214-229.285-90.6s-109.787-134.033-127.993-220.598l-59.355-282.207c-6.556-31.183-6.405-63.525 0.444-94.638s20.218-60.203 39.123-85.123c18.905-24.912 42.861-45.027 70.101-58.843s57.068-20.992 87.281-20.992h44.95c9.261-48.223 34.004-91.575 70.037-122.712s81.14-48.15 127.678-48.15c46.538 0 91.645 17.013 127.678 48.15s60.777 74.489 70.037 122.712h33.813c31.103 0 61.784 7.6 89.651 22.206 27.86 14.614 52.151 35.833 70.978 62.011 18.82 26.185 31.664 56.607 37.522 88.902s4.579 65.586-3.745 97.27h-0.037zM517.564 21.541c-24.947 0.11-49.252 8.36-69.592 23.632s-35.719 36.82-44.034 61.689h227.252c-8.316-24.869-23.695-46.416-44.034-61.689s-44.645-23.523-69.592-23.632zM845.451 242.738c-11.249-15.769-25.812-28.554-42.547-37.324-16.734-8.777-35.172-13.305-53.851-13.232h-474.154c-18.126 0.007-36.019 4.315-52.36 12.603-16.342 8.294-30.712 20.363-42.052 35.313s-19.36 32.402-23.468 51.068c-4.108 18.666-4.198 38.069-0.265 56.776l59.314 282.25c14.298 67.994 49.684 128.984 100.53 173.273s114.238 69.337 180.095 71.161c65.857 1.823 130.401-19.681 183.372-61.094s91.328-100.362 108.973-167.47l76.665-291.636c5.069-19.001 5.873-38.988 2.355-58.375s-11.257-37.642-22.608-53.314z" />
<glyph unicode="&#xe90c;" glyph-name="ask-circle" d="M512 846.222c-78.761 0-155.753-23.355-221.24-67.112s-116.528-105.951-146.669-178.717c-30.141-72.765-38.027-152.834-22.661-230.080 15.365-77.249 53.292-148.207 108.985-203.895 55.692-55.694 126.648-93.622 203.896-108.988s157.317-7.481 230.083 22.659c72.767 30.145 134.958 81.186 178.716 146.671 43.759 65.49 67.112 142.478 67.112 221.241-0.114 105.58-42.103 206.803-116.764 281.459-74.655 74.656-175.878 116.648-281.458 116.763v0zM512 116.15c-65.634 0-129.794 19.462-184.367 55.927-54.573 36.46-97.107 88.292-122.224 148.929s-31.689 127.361-18.884 191.734c12.805 64.373 44.41 123.503 90.82 169.913s105.541 78.016 169.914 90.821c64.373 12.805 131.096 6.233 191.734-18.884s112.469-67.652 148.929-122.224c36.466-54.573 55.927-118.733 55.927-184.367-0.097-87.984-35.089-172.334-97.303-234.547s-146.563-97.206-234.547-97.303zM532.321 673.546c-16.394 3.26-33.244 2.547-49.359-2.086s-31.098-13.076-43.891-24.729c-12.793-11.653-23.083-26.233-30.143-42.706s-10.714-34.439-10.706-52.625c0-8.228 2.995-16.119 8.327-21.938s12.562-9.087 20.102-9.087c7.539 0 14.771 3.268 20.102 9.087s8.326 13.71 8.326 21.938c-0.007 9.128 1.831 18.146 5.385 26.41s8.732 15.57 15.17 21.399c6.438 5.828 13.974 10.035 22.072 12.319s16.559 2.591 24.778 0.898c11.231-2.379 21.556-8.358 29.658-17.172s13.613-20.064 15.828-32.313c2.237-12.857 0.692-26.157-4.413-37.998s-13.512-21.617-24.016-27.931c-17.394-10.998-31.767-26.884-41.622-46.004s-14.832-40.776-14.411-62.707v-23.051c0-8.232 2.995-16.122 8.327-21.942 5.331-5.814 12.562-9.085 20.102-9.085s14.771 3.271 20.102 9.085c5.331 5.82 8.326 13.71 8.326 21.942v23.051c-0.357 10.795 1.9 21.503 6.541 31.046s11.505 17.582 19.899 23.309c20.595 12.346 37.184 31.353 47.481 54.406 10.291 23.053 13.79 49.021 10.012 74.333-3.783 25.311-14.655 48.723-31.124 67.015s-37.73 30.568-60.853 35.136zM568.889 220.444c0 31.42-25.47 56.889-56.889 56.889s-56.889-25.469-56.889-56.889c0-31.42 25.47-56.889 56.889-56.889s56.889 25.469 56.889 56.889z" />
<glyph unicode="&#xe90d;" glyph-name="bag" d="M938.667 486.788v116.363c0 30.862-12.258 60.459-34.082 82.282s-51.422 34.082-82.283 34.082h-38.788v38.788c0 30.861-12.258 60.459-34.082 82.281-21.82 21.822-51.418 34.082-82.278 34.082h-310.304c-30.862 0-60.459-12.26-82.282-34.082s-34.082-51.42-34.082-82.281v-38.788h-38.788c-30.861 0-60.459-12.26-82.281-34.082s-34.082-51.42-34.082-82.282v-116.363h853.333zM318.061 758.303c0 10.287 4.086 20.153 11.36 27.427s17.14 11.361 27.427 11.361h310.304c10.287 0 20.151-4.087 27.426-11.361s11.362-17.14 11.362-27.427v-38.788h-387.881v38.788zM938.667 409.212v-193.937c0-25.472-5.018-50.688-14.763-74.219s-24.030-44.911-42.039-62.921c-18.010-18.010-39.39-32.294-62.921-42.039s-48.747-14.763-74.219-14.763h-465.453c-25.468 0-50.688 5.018-74.217 14.763s-44.909 24.030-62.918 42.039c-18.009 18.010-32.294 39.39-42.041 62.921s-14.763 48.747-14.763 74.219v193.937h155.151v-38.788c0-10.287 4.087-20.151 11.361-27.426s17.14-11.362 27.427-11.362h77.576c10.287 0 20.153 4.087 27.427 11.362s11.361 17.139 11.361 27.426v38.788h232.728v-38.788c0-10.287 4.087-20.151 11.358-27.426 7.275-7.275 17.143-11.362 27.43-11.362h77.572c10.291 0 20.156 4.087 27.43 11.362s11.358 17.139 11.358 27.426v38.788h155.153z" />
<glyph unicode="&#xe90e;" d="M960 64h-725.333c-28.29 0-55.421 11.238-75.425 31.245-20.004 20-31.242 47.13-31.242 75.424v725.331c0 16.974-6.743 33.252-18.745 45.255s-28.281 18.745-45.255 18.745c-16.974 0-33.252-6.743-45.255-18.745s-18.745-28.281-18.745-45.255v-725.331c0.068-62.221 24.813-121.869 68.807-165.862s103.643-68.736 165.86-68.806h725.333c16.973 0 33.254 6.746 45.254 18.746s18.746 28.282 18.746 45.254c0 16.973-6.746 33.254-18.746 45.254s-28.282 18.746-45.254 18.746z" />
<glyph unicode="&#xe90f;" d="M320 704c-16.974 0-33.252-9.103-45.255-25.306s-18.745-38.179-18.745-61.094v-403.2c0-22.912 6.743-44.89 18.745-61.094s28.281-25.306 45.255-25.306c16.974 0 33.252 9.101 45.255 25.306s18.745 38.182 18.745 61.094v403.2c0 22.915-6.743 44.891-18.745 61.094s-28.281 25.306-45.255 25.306z" />
<glyph unicode="&#xe910;" d="M512 480v-256c0-25.459 6.743-49.882 18.745-67.885s28.281-28.115 45.255-28.115c16.974 0 33.252 10.112 45.255 28.115s18.745 42.426 18.745 67.885v256c0 25.46-6.743 49.879-18.745 67.882s-28.281 28.118-45.255 28.118c-16.974 0-33.252-10.115-45.255-28.118s-18.745-42.422-18.745-67.882z" />
<glyph unicode="&#xe911;" d="M768 680.727v-465.457c0-23.142 6.746-45.344 18.746-61.709s28.282-25.562 45.254-25.562c16.973 0 33.254 9.197 45.254 25.562s18.746 38.566 18.746 61.709v465.457c0 23.146-6.746 45.345-18.746 61.711s-28.282 25.562-45.254 25.562c-16.973 0-33.254-9.195-45.254-25.562s-18.746-38.565-18.746-61.711z" />
<glyph unicode="&#xe912;" glyph-name="check" d="M330.632 82.286c-29.067-0.015-56.944 11.42-77.48 31.774l-234.248 231.696c-25.205 24.948-25.205 65.388 0 90.337 25.213 24.94 66.084 24.94 91.297 0l220.431-218.111 583.164 577.028c25.22 24.94 66.085 24.94 91.297 0 25.212-24.948 25.212-65.388 0-90.336l-596.98-590.613c-20.536-20.354-48.413-31.789-77.48-31.774z" />
<glyph unicode="&#xe913;" glyph-name="close" d="M605.814 447.992l398.724 398.746c25.952 25.937 25.952 67.873 0 93.81-25.933 25.937-67.872 25.937-93.805 0l-398.739-398.745-398.725 398.745c-25.949 25.937-67.872 25.937-93.808 0-25.948-25.937-25.948-67.873 0-93.81l398.725-398.746-398.725-398.744c-25.948-25.939-25.948-67.872 0-93.811 12.926-12.934 29.921-19.437 46.904-19.437s33.966 6.502 46.904 19.437l398.725 398.746 398.739-398.746c12.934-12.934 29.92-19.437 46.899-19.437 16.986 0 33.971 6.502 46.906 19.437 25.952 25.939 25.952 67.872 0 93.811l-398.724 398.744z" />
<glyph unicode="&#xe914;" glyph-name="copy" d="M640 106.667h-426.667c-56.559 0.067-110.781 22.566-150.775 62.559s-62.491 94.216-62.559 150.775v426.667c0.068 56.559 22.566 110.781 62.559 150.775s94.216 62.491 150.775 62.559h426.667c56.559-0.068 110.781-22.566 150.775-62.559s62.491-94.216 62.559-150.775v-426.667c-0.067-56.559-22.566-110.781-62.559-150.775s-94.216-62.491-150.775-62.559zM1024 149.333v554.667c0 11.316-4.497 22.169-12.493 30.17-8.004 8.002-18.859 12.497-30.174 12.497s-22.17-4.495-30.174-12.497c-7.996-8.001-12.493-18.854-12.493-30.17v-554.667c0-33.947-13.483-66.509-37.487-90.513s-56.566-37.487-90.513-37.487h-554.667c-11.316 0-22.169-4.497-30.17-12.493-8.002-8.004-12.497-18.859-12.497-30.174s4.495-22.17 12.497-30.174c8.001-7.996 18.854-12.493 30.17-12.493h554.667c56.559 0.068 110.78 22.562 150.775 62.558s62.49 94.217 62.558 150.775z" />
<glyph unicode="&#xe915;" glyph-name="discord" d="M866.86 753.083c-65.265 28.064-135.256 48.74-208.432 60.582-1.333 0.229-2.664-0.343-3.351-1.485-9.001-15.002-18.971-34.574-25.953-49.958-78.706 11.042-157.009 11.042-234.102 0-6.984 15.725-17.316 34.955-26.357 49.958-0.687 1.104-2.018 1.675-3.351 1.485-73.137-11.804-143.125-32.48-208.432-60.582-0.565-0.228-1.050-0.61-1.371-1.104-132.753-185.857-169.12-367.147-151.28-546.188 0.081-0.876 0.605-1.714 1.332-2.246 87.587-60.277 172.429-96.87 255.696-121.125 1.333-0.382 2.745 0.076 3.593 1.104 19.697 25.206 37.255 51.784 52.309 79.735 0.889 1.636 0.041 3.579-1.775 4.226-27.85 9.9-54.369 21.971-79.878 35.678-2.017 1.104-2.179 3.809-0.323 5.103 5.368 3.77 10.737 7.692 15.863 11.652 0.927 0.723 2.219 0.876 3.31 0.419 167.584-71.701 349.014-71.701 514.621 0 1.090 0.494 2.384 0.342 3.35-0.381 5.127-3.96 10.496-7.92 15.901-11.69 1.858-1.295 1.733-3.999-0.278-5.103-25.512-13.974-52.034-25.778-79.921-35.641-1.815-0.647-2.623-2.627-1.735-4.263 15.378-27.911 32.935-54.49 52.267-79.697 0.812-1.066 2.26-1.524 3.591-1.142 83.675 24.255 168.514 60.848 256.102 121.125 0.768 0.532 1.251 1.333 1.331 2.208 21.35 206.992-35.76 386.794-151.398 546.188-0.285 0.533-0.768 0.914-1.331 1.142zM342.188 314.808c-50.455 0-92.028 43.408-92.028 96.718s40.767 96.717 92.028 96.717c51.663 0 92.834-43.788 92.025-96.717 0-53.309-40.766-96.718-92.025-96.718zM682.443 314.808c-50.453 0-92.026 43.408-92.026 96.718s40.765 96.717 92.026 96.717c51.663 0 92.835-43.788 92.031-96.717 0-53.309-40.368-96.718-92.031-96.718z" />
<glyph unicode="&#xe916;" glyph-name="document" d="M731.428 362.666c0-11.316-4.623-22.168-12.854-30.17s-19.392-12.496-31.032-12.496h-351.085c-11.639 0-22.802 4.495-31.032 12.496s-12.853 18.854-12.853 30.17c0 11.316 4.623 22.168 12.853 30.17s19.393 12.496 31.032 12.496h351.085c11.639 0 22.802-4.495 31.032-12.496s12.854-18.854 12.854-30.17zM555.885 234.666h-219.428c-11.639 0-22.802-4.495-31.032-12.495-8.23-8.002-12.853-18.856-12.853-30.171s4.623-22.17 12.853-30.171c8.23-8.002 19.393-12.493 31.032-12.493h219.428c11.639 0 22.802 4.491 31.032 12.493s12.853 18.856 12.853 30.171c0 11.315-4.623 22.17-12.853 30.171-8.231 8-19.393 12.495-31.032 12.495zM950.857 512.639v-363.303c-0.073-56.561-23.208-110.782-64.344-150.777s-96.911-62.493-155.086-62.559h-438.856c-58.175 0.066-113.947 22.565-155.083 62.559s-64.276 94.215-64.346 150.777v597.33c0.070 56.559 23.21 110.781 64.346 150.775s96.908 62.491 155.083 62.559h198.143c40.358 0.101 80.336-7.577 117.624-22.59s71.142-37.064 99.61-64.877l152.899-148.735c28.621-27.658 51.317-60.564 66.765-96.81 15.455-36.246 23.355-75.113 23.245-114.348zM645.895 812.202c-13.812 13.006-29.319 24.196-46.124 33.28v-184.149c0-11.316 4.624-22.169 12.854-30.17s19.392-12.497 31.032-12.497h189.411c-9.348 16.334-20.875 31.397-34.275 44.8l-152.898 148.736zM863.086 512.639c0 7.040-1.404 13.782-2.063 20.694h-217.367c-34.918 0-68.405 13.485-93.095 37.49s-38.562 56.562-38.562 90.51v211.327c-7.109 0.64-14.087 2.006-21.285 2.006h-198.143c-34.918 0-68.405-13.485-93.095-37.49s-38.562-56.562-38.562-90.51v-597.33c0-33.953 13.871-66.509 38.562-90.514s58.178-37.486 93.095-37.486h438.856c34.918 0 68.405 13.48 93.097 37.486 24.686 24.005 38.561 56.561 38.561 90.514v363.303z" />
<glyph unicode="&#xe917;" glyph-name="document-search" d="M429.256 213.333c0.052 54.34 15.582 107.463 44.662 152.781 29.080 45.313 70.428 80.82 118.908 102.109 48.482 21.289 101.958 27.422 153.789 17.637s99.732-35.056 137.756-72.676v418.816c0 33.948-13.079 66.505-36.352 90.51-23.279 24.005-54.852 37.49-87.768 37.49h-496.492c-54.845-0.068-107.426-22.566-146.207-62.558s-60.598-94.216-60.663-150.775v-597.333c0.066-56.559 21.882-110.78 60.663-150.773s91.362-62.492 146.207-62.561h434.426c-71.322 0-139.727 29.218-190.161 81.232-50.435 52.008-78.768 122.55-78.768 196.102zM263.76 661.333c0 11.316 4.359 22.168 12.118 30.17s18.283 12.497 29.256 12.497h330.992c10.974 0 21.498-4.495 29.258-12.497s12.117-18.854 12.117-30.17c0-11.316-4.358-22.168-12.117-30.17s-18.284-12.497-29.258-12.497h-330.992c-10.973 0-21.497 4.495-29.256 12.497s-12.118 18.854-12.118 30.17zM954.999-51.502c-7.76-7.999-18.284-12.487-29.252-12.487-10.974 0-21.493 4.489-29.252 12.487l-99.59 102.702c-29.491-19.41-63.733-29.77-98.719-29.867-36.824 0-72.818 11.258-103.436 32.358-30.618 21.094-54.481 51.081-68.573 86.164s-17.779 73.688-10.595 110.933c7.184 37.245 24.916 71.458 50.955 98.31s59.213 45.137 95.332 52.545c36.113 7.409 73.546 3.606 107.571-10.926 34.020-14.535 63.095-39.14 83.553-70.719 20.463-31.573 31.38-68.693 31.38-106.667-0.091-36.079-10.138-71.39-28.962-101.803l99.59-102.696c7.754-8.004 12.112-18.853 12.112-30.168s-4.358-22.164-12.112-30.168z" />
<glyph unicode="&#xe918;" glyph-name="error-file" d="M512 618.667c-141.184 0-256-114.816-256-256s114.816-256 256-256c141.184 0 256 114.816 256 256s-114.816 256-256 256zM627.499 307.499c16.683-16.683 16.683-43.648 0-60.331-8.32-8.32-19.243-12.501-30.165-12.501s-21.845 4.181-30.165 12.501l-55.168 55.168-55.168-55.168c-8.32-8.32-19.243-12.501-30.165-12.501s-21.845 4.181-30.165 12.501c-16.683 16.683-16.683 43.648 0 60.331l55.168 55.168-55.168 55.168c-16.683 16.683-16.683 43.648 0 60.331s43.648 16.683 60.331 0l55.168-55.168 55.168 55.168c16.683 16.683 43.648 16.683 60.331 0s16.683-43.648 0-60.331l-55.168-55.168 55.168-55.168zM896 917.333h-768c-70.571 0-128-57.429-128-128v-682.667c0-70.571 57.429-128 128-128h768c70.571 0 128 57.429 128 128v682.667c0 70.571-57.429 128-128 128zM896 64h-768c-23.509 0-42.667 19.115-42.667 42.667v597.333h853.333v-597.333c0-23.552-19.157-42.667-42.667-42.667z" />
<glyph unicode="&#xe919;" glyph-name="exchange" d="M231.506 418.735l-47.439 47.437c-17.868 17.869-17.868 46.963 0 64.866l233.561 233.562-63.105 63.105c-7.852 7.852-10.236 19.702-5.98 29.975s14.345 16.987 25.462 16.987h238.479c15.189 0 27.516-12.327 27.516-27.517v-238.478c0-11.117-6.716-21.169-16.986-25.425-10.274-4.256-22.089-1.944-29.978 5.98l-63.104 63.068-233.561-233.56c-17.831-17.796-46.889-17.941-64.866 0zM649.993 21.333h-238.476c-15.189 0-27.517 12.326-27.517 27.516v238.477c0 11.119 6.714 21.171 16.987 25.429 10.273 4.254 22.124 1.907 29.976-5.982l63.104-63.070 233.562 233.562c17.869 17.869 46.959 17.869 64.866 0l47.437-47.437c17.869-17.869 17.869-46.963 0-64.866l-233.562-233.562 63.104-63.104c7.855-7.855 10.24-19.703 5.982-29.978-4.254-10.27-14.345-16.986-25.463-16.986z" />
<glyph unicode="&#xe91a;" glyph-name="gas" d="M1024 192c0-33.946-13.485-66.502-37.491-90.509s-56.563-37.491-90.509-37.491c-33.946 0-66.502 13.485-90.509 37.491s-37.491 56.563-37.491 90.509v42.669c0 11.315-4.493 22.163-12.499 30.17-8 8-18.854 12.493-30.17 12.493h-42.662v-128c-0.070-56.557-22.566-110.778-62.561-150.771s-94.216-62.49-150.775-62.56h-256c-56.559 0.070-110.781 22.566-150.774 62.56s-62.491 94.214-62.559 150.771v341.336h682.669v-128h42.662c33.952 0 66.509-13.486 90.509-37.491 24.006-24.005 37.491-56.562 37.491-90.508v-42.669c0-11.315 4.499-22.17 12.499-30.17s18.854-12.499 30.17-12.499c11.315 0 22.17 4.499 30.17 12.499s12.499 18.854 12.499 30.17v426.667c-22.637 0-44.339 8.99-60.339 24.993-16.006 16.003-24.998 37.708-24.998 60.34v110.336l-72.832 72.832c-7.77 8.047-12.070 18.825-11.974 30.012s4.582 21.888 12.499 29.799c7.91 7.911 18.611 12.398 29.798 12.495s21.965-4.203 30.010-11.975l108.205-108.16c47.181-46.928 74.099-110.481 74.963-177.024 0-0.342 0-470.315 0-470.315zM682.669 746.667c-0.070 56.559-22.566 110.781-62.561 150.774s-94.216 62.491-150.775 62.559h-256c-56.559-0.068-110.781-22.566-150.774-62.559s-62.491-94.216-62.559-150.774v-170.667h682.669v170.667z" />
<glyph unicode="&#xe91b;" glyph-name="home" d="M512.001 319.982c-33.951 0-66.512-13.488-90.52-37.495s-37.494-56.571-37.494-90.516v-256.029h256.029v256.029c0 33.946-13.488 66.51-37.494 90.516s-56.569 37.495-90.52 37.495zM725.527 191.956v-256.029h170.516c33.953 0 66.509 13.488 90.522 37.493 24.005 24.013 37.493 56.569 37.493 90.522v389.678c-0.073 22.16-8.697 43.438-24.071 59.399l-362.534 392.237c-15.22 16.459-33.537 29.755-53.901 39.127s-42.376 14.637-64.778 15.493c-22.401 0.856-44.751-2.713-65.772-10.504s-40.297-19.65-56.73-34.899l-9.729-9.217-362.025-392.237c-7.874-7.956-14.098-17.39-18.316-27.76s-6.346-21.469-6.263-32.663v-388.654c0-33.953 13.487-66.509 37.495-90.522 24.007-24.005 56.569-37.493 90.52-37.493h170.516v256.029c0.486 55.701 22.413 109.072 61.223 149.027s91.522 63.422 147.184 65.527c28.445 0.27 56.665-5.065 83.047-15.702s50.412-26.365 70.716-46.288c20.304-19.923 36.484-43.651 47.617-69.827s17.001-54.292 17.269-82.737z" />
<glyph unicode="&#xe91c;" glyph-name="market-place" d="M913.668 724.667c13.815 0 24.998 11.182 24.998 25v100c0 13.818-11.183 25-24.998 25h-100.002c-13.82 0-24.998-11.182-24.998-25v-25h-553.335v25c0 13.818-11.182 25-25 25h-100c-13.818 0-25-11.182-25-25v-100c0-13.818 11.182-25 25-25h25v-553.335h-25c-13.818 0-25-11.179-25-24.998v-100.002c0-13.815 11.182-24.998 25-24.998h100c13.818 0 25 11.183 25 24.998v25.003h553.335v-25.003c0-13.815 11.179-24.998 24.998-24.998h100.002c13.815 0 24.998 11.183 24.998 24.998v100.002c0 13.82-11.183 24.998-24.998 24.998h-25.003v553.335h25.003zM838.665 171.332h-24.998c-13.82 0-24.998-11.179-24.998-24.998v-24.998h-553.335v24.998c0 13.82-11.182 24.998-25 24.998h-25v553.335h25c13.818 0 25 11.182 25 25v25h553.335v-25c0-13.818 11.179-25 24.998-25h24.998v-553.335zM448 704h-170.667c-11.792 0-21.333-9.542-21.333-21.333v-170.667c0-11.793 9.542-21.333 21.333-21.333h170.667c11.793 0 21.333 9.54 21.333 21.333v170.667c0 11.792-9.54 21.333-21.333 21.333zM765.743 521.463l-85.329 170.657c-7.249 14.458-30.912 14.458-38.161 0l-85.329-170.657c-3.315-6.605-2.961-14.455 0.934-20.749s10.752-10.125 18.146-10.125h170.658c7.394 0 14.251 3.831 18.146 10.125 3.891 6.293 4.245 14.144 0.934 20.749zM362.663 405.333c-58.811 0-106.663-47.851-106.663-106.662s47.852-106.662 106.663-106.662c58.811 0 106.662 47.851 106.662 106.662s-47.85 106.662-106.662 106.662zM746.662 405.333h-170.662c-11.793 0-21.333-9.54-21.333-21.333v-170.662c0-11.789 9.54-21.329 21.333-21.329h170.662c11.789 0 21.329 9.54 21.329 21.329v170.662c0 11.793-9.54 21.333-21.329 21.333z" />
<glyph unicode="&#xe91d;" glyph-name="medium" d="M942.292 727.752l81.708 70.525v15.437h-283.048l-201.73-453.023-229.504 453.023h-296.79v-15.437l95.446-103.67c9.301-7.661 14.165-18.864 12.928-30.143v-407.406c2.944-14.667-2.347-29.757-13.782-40.421l-107.52-117.568v-15.244h304.854v15.438l-107.52 117.375c-11.648 10.702-17.152 25.523-14.806 40.421v352.395l267.606-525.82h31.104l230.101 525.82v-418.877c0-11.049 0-13.32-8.021-20.558l-82.774-72.257v-15.476h401.576v15.437l-79.784 70.487c-7 4.773-10.628 12.78-9.128 20.557v518.429c-1.499 7.815 2.085 15.822 9.084 20.558z" />
<glyph unicode="&#xe91e;" glyph-name="new-tab" d="M460.8 960.004h-256c-113.101 0-204.8-91.699-204.8-204.8v-614.4c0-113.104 91.699-204.803 204.8-204.803h614.4c113.101 0 204.8 91.699 204.8 204.803 0 116.275 0 256 0 256 0 28.262-22.938 51.2-51.2 51.2s-51.2-22.938-51.2-51.2v-256c0-56.528-45.875-102.403-102.4-102.403-170.496 0-443.955 0-614.4 0-56.576 0-102.4 45.875-102.4 102.403 0 170.496 0 443.955 0 614.4 0 56.576 45.824 102.4 102.4 102.4h256c28.262 0 51.2 22.938 51.2 51.2s-22.938 51.2-51.2 51.2zM849.203 857.603h-183.603c-28.262 0-51.2 22.938-51.2 51.2s22.938 51.2 51.2 51.2h307.2c28.262 0 51.2-22.938 51.2-51.2v-307.2c0-28.262-22.938-51.2-51.2-51.2s-51.2 22.938-51.2 51.2v183.603l-373.402-373.402c-19.968-19.968-52.429-19.968-72.397 0-20.019 19.968-20.019 52.429 0 72.397l373.402 373.402z" />
<glyph unicode="&#xe91f;" glyph-name="pig" d="M170.667 645.429c-12.483 3.164-23.29 9.025-30.932 16.777s-11.741 17.010-11.735 26.502c0 4.056-2.248 7.945-6.249 10.813s-9.427 4.479-15.085 4.479c-5.658 0-11.084-1.611-15.085-4.479s-6.249-6.758-6.249-10.813c0.011-14.871 6.071-29.418 17.438-41.858s27.549-22.234 46.562-28.183c6.326 9.231 13.452 18.169 21.333 26.762zM919.364 545.641c-12.83-0.092-25.382 3.724-35.947 10.927s-18.633 17.448-23.108 29.341c-13.141 36.289-32.316 70.153-56.738 100.195v6.871l55.194 91.034c1.562 2.264 2.611 4.833 3.076 7.534s0.337 5.468-0.375 8.116c-0.832 2.573-2.21 4.942-4.041 6.948s-4.070 3.607-6.571 4.694c-5.406 2.29-127.761 53.437-204.958-14.123-42.799 12.212-87.313 17.496-131.814 15.65-54.507-0.5-108.371-11.668-158.488-32.861s-95.494-51.991-133.511-90.617c-14.151-14.98-27.059-31.063-38.598-48.093-7.714-11.31-14.676-23.104-20.843-35.307-23.931-43.92-35.84-93.263-34.546-143.136 4.711-79.838 39.075-155.145 96.497-211.46v-125.577c0-5.060 2.033-9.916 5.652-13.495s8.528-5.589 13.647-5.589h128.34c4.208-0.218 8.373 0.934 11.858 3.277s6.098 5.751 7.441 9.702c6.755 20.42 22.194 44.275 45.355 44.275h135.091c12.809 0.158 25.233-4.322 34.935-12.595 11.823-10.5 22.029-22.652 30.298-36.070 1.749-2.624 4.126-4.783 6.921-6.281s5.918-2.291 9.097-2.308h111.744c2.539-0.013 5.060 0.469 7.411 1.417 2.351 0.951 4.489 2.351 6.293 4.117 1.788 1.783 3.204 3.9 4.164 6.225s1.446 4.813 1.429 7.326v127.104c8.107 10.496 26.441 34.735 34.935 46.758 4.663 6.72 10.633 12.454 17.557 16.875 6.921 4.425 14.665 7.445 22.775 8.887l63.108 10.308c4.531 0.772 8.636 3.119 11.571 6.618 2.94 3.499 4.514 7.919 4.45 12.467v171.763c0 5.060-2.035 9.915-5.653 13.494-3.622 3.579-8.529 5.59-13.649 5.59zM665.195 668.738c-1.749-2.625-4.126-4.783-6.921-6.281s-5.918-2.291-9.097-2.307c-3.797-0.043-7.509 1.092-10.615 3.244-37.692 22.205-80.614 34.247-124.48 34.925-43.891-0.525-86.852-12.579-124.482-34.925-4.238-2.248-9.171-2.85-13.834-1.689s-8.72 4.001-11.376 7.965c-2.656 3.964-3.72 8.766-2.984 13.465s3.22 8.957 6.965 11.94c43.883 26.594 94.242 40.907 145.711 41.414 51.465-0.507 101.824-14.82 145.707-41.414 4.233-2.799 7.172-7.136 8.188-12.069 1.011-4.933 0.009-10.061-2.782-14.268zM736.021 564.726c-5.726 0-11.319 1.679-16.081 4.825s-8.474 7.616-10.662 12.847c-2.193 5.231-2.765 10.987-1.647 16.54 1.114 5.553 3.874 10.654 7.923 14.658 4.045 4.003 9.203 6.73 14.822 7.834 5.615 1.105 11.435 0.538 16.725-1.629 5.286-2.167 9.809-5.836 12.992-10.543 3.179-4.708 4.877-10.243 4.877-15.904 0-7.593-3.051-14.874-8.478-20.242-5.431-5.369-12.791-8.385-20.471-8.385z" />
<glyph unicode="&#xe920;" glyph-name="plus" d="M938.669 533.333h-341.336v341.334c0 22.632-8.99 44.336-24.993 60.34s-37.708 24.994-60.34 24.994c-22.632 0-44.337-8.99-60.34-24.994s-24.993-37.708-24.993-60.34v-341.334h-341.334c-22.632 0-44.336-8.99-60.34-24.993s-24.994-37.708-24.994-60.34c0-22.632 8.99-44.337 24.994-60.34s37.708-24.993 60.34-24.993h341.334v-341.336c0-22.63 8.99-44.333 24.993-60.339 16.003-16 37.708-24.992 60.34-24.992s44.337 8.992 60.34 24.992c16.003 16.006 24.993 37.709 24.993 60.339v341.336h341.336c22.63 0 44.333 8.99 60.339 24.993 16 16.003 24.992 37.708 24.992 60.34s-8.992 44.337-24.992 60.34c-16.006 16.003-37.709 24.993-60.339 24.993z" />
<glyph unicode="&#xe921;" glyph-name="reload" d="M959.546 448.511c-32.442-0.286-59.706-24.346-63.878-56.376-30.912-210.234-227.174-355.719-438.358-324.948-211.187 30.765-357.332 226.144-326.422 436.378 30.91 210.236 227.169 355.721 438.356 324.95 71.986-10.488 139.538-40.992 194.885-88.004l-48.48-48.262c-16.755-16.68-16.749-43.724 0.006-60.4 8.077-8.036 19.034-12.536 30.451-12.504h196.749c23.693 0 42.906 19.121 42.906 42.708v195.863c-0.006 23.588-19.219 42.704-42.912 42.7-11.373-0.002-22.285-4.5-30.323-12.505l-57.146-56.888c-212.608 187.513-537.657 167.95-726.021-43.699s-168.708-535.238 43.897-722.751c212.605-187.514 537.657-167.949 726.022 43.699 66.304 74.509 109.363 166.643 123.891 265.125 5.69 35.259-18.413 68.434-53.83 74.095-3.238 0.518-6.515 0.791-9.792 0.817z" />
<glyph unicode="&#xe922;" glyph-name="rocket" d="M124.85 345.6h-124.847v40.253c-0.273 56.453 16.705 111.886 49.074 160.22s78.878 87.704 134.43 113.793c54.792 24.273 114.081 39.235 174.893 44.133-26.907-29.584-53.813-61.107-80.182-94.086-60-83.684-111.338-172.159-153.368-264.314zM675.369 214.758c-84.137-60.262-173.103-111.78-265.769-153.907v-124.846h40.253c56.454-0.276 111.887 16.701 160.22 49.070s87.706 78.879 113.792 134.431c24.274 54.794 39.235 114.084 44.134 174.894-28.129-26.906-59.653-53.274-92.631-79.642zM894.679 960c-185.994-6.198-370.959-141.010-566.742-413.216-47.987-73.576-89.203-151.377-123.138-232.432h25.761c39.641-0.266 77.597-16.102 105.724-44.109s44.182-65.946 44.721-105.682v-23.762c80.437 34.212 157.68 75.52 230.819 123.448 270.49 194.728 404.961 380.158 412.175 568.172 0 89.358-36.065 127.58-129.321 127.58zM659.738 487.385c-21.217-0.102-41.984 6.112-59.674 17.854-17.695 11.743-31.508 28.486-39.7 48.109-8.187 19.622-10.383 41.24-6.308 62.114s14.244 40.066 29.21 55.143c14.966 15.077 34.058 25.361 54.861 29.548s42.378 2.090 61.988-6.026c19.615-8.116 36.383-21.886 48.179-39.565s18.094-38.471 18.099-59.742c0-28.404-11.223-55.653-31.206-75.787-19.988-20.133-47.114-31.513-75.448-31.649zM59.866-53.166c48.097 8.259 163.734 32.507 204.668 71.204 12.973 11.694 23.444 25.938 30.771 41.851s11.358 33.172 11.845 50.708c0.487 17.541-2.58 35-9.014 51.302s-16.098 31.114-28.402 43.52c-12.304 12.406-26.99 22.154-43.158 28.641s-33.478 9.58-50.872 9.088c-17.394-0.492-34.506-4.557-50.289-11.945s-29.905-17.946-41.502-31.027c-38.375-38.697-62.424-154.793-70.61-203.807l-13.303-60.37 59.866 10.834z" />
<glyph unicode="&#xe923;" glyph-name="setting" d="M68.573 192c35.292-61.254 113.558-82.298 174.81-47.002 0.042 0.019 0.083 0.045 0.124 0.070l18.986 10.963c35.84-30.662 77.036-54.445 121.514-70.144v-21.888c0-70.694 57.308-128 128-128s127.999 57.306 127.999 128v21.888c44.486 15.725 85.683 39.533 121.517 70.227l19.072-11.008c61.267-35.341 139.584-14.33 174.931 46.938s14.336 139.587-46.931 174.933l-18.944 10.922c8.525 46.402 8.525 93.97 0 140.374l18.944 10.922c61.267 35.346 82.278 113.666 46.931 174.934-35.347 61.266-113.664 82.28-174.931 46.934l-18.989-10.966c-35.872 30.626-77.101 54.362-121.6 70.014v21.888c0 70.692-57.307 128-127.999 128s-128-57.308-128-128v-21.888c-44.484-15.726-85.682-39.534-121.514-70.23l-19.072 11.050c-61.268 35.348-139.588 14.334-174.934-46.932s-14.334-139.588 46.934-174.934l18.944-10.922c-8.528-46.402-8.528-93.97 0-140.374l-18.944-10.922c-61.098-35.44-82.042-113.606-46.848-174.848zM512.007 618.666c94.256 0 170.668-76.41 170.668-170.666s-76.412-170.669-170.668-170.669c-94.256 0-170.666 76.413-170.666 170.669s76.41 170.666 170.666 170.666z" />
<glyph unicode="&#xe924;" glyph-name="share" d="M824.877 334.204c-32.282-0.008-64.077-7.87-92.64-22.908-28.57-15.040-53.043-36.8-71.328-63.405l-277.331 125.225c19.449 47.761 19.602 101.206 0.427 149.078l277.077 125.824c27.021-39.2 67.194-67.416 113.235-79.531s94.899-7.325 137.715 13.501c42.81 20.826 76.742 56.308 95.635 100.008 18.886 43.701 21.491 92.725 7.328 138.18-14.157 45.455-44.141 84.328-84.512 109.567-40.365 25.24-88.448 35.173-135.514 27.999s-89.997-30.981-121.011-67.101c-31.021-36.12-48.059-82.161-48.034-129.77-0.001-11.325 0.956-22.628 2.859-33.792l-294.016-133.461c-28.344 26.435-63.787 44.023-101.981 50.609s-77.481 1.881-113.041-13.536c-35.56-15.418-65.847-40.877-87.148-73.256s-32.69-70.272-32.769-109.030c-0.079-38.758 11.154-76.696 32.322-109.163 21.168-32.47 51.351-58.051 86.848-73.615 35.496-15.558 74.763-20.422 112.984-13.997 38.221 6.432 73.735 23.872 102.187 50.189l294.4-132.992c-6.92-40.237-1.304-81.626 16.090-118.566 17.389-36.934 45.715-67.635 81.133-87.942 35.424-20.301 76.23-29.222 116.89-25.562 40.666 3.667 79.219 19.738 110.438 46.048 31.226 26.31 53.606 61.574 64.115 101.030 10.502 39.45 8.634 81.178-5.37 119.533-14.003 38.349-39.456 71.475-72.909 94.874-33.453 23.405-73.293 35.96-114.118 35.964h0.038z" />
<glyph unicode="&#xe925;" glyph-name="signal" d="M512 704c-33.948 0-66.505-13.485-90.509-37.491s-37.491-56.562-37.491-90.509v-512c0-33.946 13.485-66.502 37.491-90.509s56.562-37.491 90.509-37.491c33.948 0 66.505 13.485 90.509 37.491s37.491 56.563 37.491 90.509v512c0 33.948-13.485 66.505-37.491 90.509s-56.562 37.491-90.509 37.491zM896 960c-33.946 0-66.502-13.486-90.509-37.49s-37.491-56.562-37.491-90.51v-768c0-33.946 13.485-66.502 37.491-90.509s56.563-37.491 90.509-37.491c33.946 0 66.502 13.485 90.509 37.491s37.491 56.563 37.491 90.509v768c0 33.948-13.485 66.505-37.491 90.51s-56.563 37.49-90.509 37.49v0zM128 448c-33.948 0-66.505-13.485-90.51-37.491s-37.49-56.562-37.49-90.509v-256c0-33.946 13.486-66.502 37.49-90.509s56.562-37.491 90.51-37.491c33.948 0 66.505 13.485 90.509 37.491s37.491 56.563 37.491 90.509v256c0 33.948-13.485 66.505-37.491 90.509s-56.562 37.491-90.509 37.491z" />
<glyph unicode="&#xe926;" glyph-name="sniper-bot" d="M512 874.667c-84.386 0-166.878-25.024-237.043-71.906s-124.852-113.519-157.145-191.482c-32.294-77.962-40.743-163.752-24.28-246.517s57.099-158.788 116.77-218.462c59.67-59.669 135.695-100.305 218.46-116.766 82.765-16.465 168.555-8.017 246.515 24.277 77.965 32.294 144.602 86.98 191.484 157.146s71.906 152.657 71.906 237.043c0 113.159-44.954 221.684-124.966 301.699-80.017 80.015-188.54 124.968-301.7 124.968v0zM565.333 132.693v48.64c0 14.144-5.619 27.712-15.62 37.713s-23.569 15.62-37.713 15.62c-14.144 0-27.712-5.619-37.713-15.62s-15.62-23.569-15.62-37.713v-48.64c-65.394 11.221-125.702 42.436-172.619 89.357-46.916 46.916-78.134 107.221-89.355 172.617h48.64c14.145 0 27.711 5.619 37.713 15.62s15.621 23.569 15.621 37.713c0 14.144-5.619 27.712-15.621 37.713s-23.568 15.62-37.713 15.62h-48.64c11.22 65.394 42.438 125.702 89.355 172.619s107.224 78.134 172.619 89.355v-48.64c0-14.145 5.619-27.71 15.62-37.712s23.569-15.621 37.713-15.621c14.144 0 27.712 5.619 37.713 15.621s15.62 23.567 15.62 37.712v48.64c65.395-11.22 125.7-42.438 172.621-89.355 46.916-46.917 78.131-107.224 89.353-172.619h-48.64c-14.144 0-27.712-5.619-37.713-15.62s-15.62-23.569-15.62-37.713c0-14.144 5.619-27.712 15.62-37.713s23.569-15.62 37.713-15.62h48.64c-11.221-65.395-42.436-125.7-89.353-172.617-46.921-46.921-107.226-78.135-172.621-89.357zM640 448c0-12.745-5.060-24.964-14.071-33.975s-21.235-14.071-33.975-14.071h-31.906v-31.906c0-12.74-5.060-24.964-14.071-33.975s-21.231-14.071-33.975-14.071c-12.745 0-24.964 5.060-33.975 14.071s-14.071 21.235-14.071 33.975v31.906h-31.906c-12.742 0-24.963 5.060-33.974 14.071s-14.073 21.231-14.073 33.975c0 12.745 5.062 24.964 14.073 33.975s21.232 14.071 33.974 14.071h31.906v31.906c0 12.742 5.060 24.963 14.071 33.974s21.231 14.073 33.975 14.073c12.745 0 24.964-5.062 33.975-14.073s14.071-21.232 14.071-33.974v-31.906h31.906c12.74 0 24.964-5.060 33.975-14.071s14.071-21.231 14.071-33.975z" />
<glyph unicode="&#xe927;" glyph-name="speaker" d="M902.827 305.916c-5.431 0.124-10.79 1.284-15.787 3.413l-70.827 35.84c-4.224 2.048-8.004 4.915-11.115 8.431-3.106 3.52-5.487 7.625-6.993 12.070-1.51 4.446-2.121 9.148-1.792 13.833 0.324 4.685 1.579 9.259 3.686 13.453 4.297 8.384 11.716 14.741 20.659 17.694s18.688 2.27 27.127-1.907l71.253-35.413c4.19-2.082 7.927-4.975 10.991-8.512 3.068-3.537 5.402-7.642 6.869-12.087 1.468-4.442 2.039-9.135 1.685-13.798-0.354-4.668-1.634-9.216-3.759-13.389-2.918-5.973-7.475-10.991-13.146-14.468-5.666-3.473-12.207-5.265-18.854-5.158zM847.787 629.332l71.253 35.413c4.19 2.083 7.927 4.977 10.991 8.513 3.068 3.536 5.402 7.645 6.869 12.088s2.039 9.134 1.685 13.8c-0.354 4.666-1.634 9.216-3.759 13.385-4.215 8.457-11.605 14.906-20.557 17.942-8.947 3.037-18.735 2.415-27.23-1.729l-70.827-35.84c-4.173-2.073-7.898-4.948-10.961-8.461s-5.406-7.595-6.891-12.012c-1.485-4.418-2.086-9.085-1.766-13.734 0.316-4.65 1.545-9.192 3.618-13.366s4.949-7.899 8.461-10.962c3.516-3.063 7.595-5.405 12.015-6.89 4.416-1.486 9.084-2.087 13.734-1.769s9.19 1.548 13.363 3.622zM938.667 519.258c0.004 4.685-0.926 9.327-2.735 13.649-1.805 4.325-4.45 8.248-7.787 11.542-3.332 3.294-7.287 5.894-11.635 7.648-4.343 1.754-8.994 2.629-13.683 2.572h-70.827c-9.391 0-18.398-3.731-25.041-10.372-6.639-6.641-10.372-15.648-10.372-25.039 0-9.434 3.721-18.487 10.347-25.195 6.63-6.707 15.637-10.534 25.067-10.645h70.827c9.506 0 18.624 3.776 25.344 10.496s10.496 15.838 10.496 25.344zM725.333 199.253v640c0 9.392-3.729 18.4-10.372 25.041s-15.65 10.372-25.041 10.372c-9.434 0.001-18.483-3.717-25.195-10.346-6.707-6.63-10.534-15.636-10.645-25.068 0-104.96-91.733-142.507-177.493-142.507h-249.173c-37.682 0-73.821-14.969-100.466-41.614s-41.614-62.784-41.614-100.466v-71.253c0-37.683 14.969-73.822 41.614-100.467s62.784-41.613 100.466-41.613h249.173c85.333 0 177.493-37.547 177.493-142.080 0.111-9.472 3.921-18.522 10.62-25.22s15.748-10.509 25.22-10.62c9.429 0.111 18.436 3.938 25.067 10.645 6.63 6.711 10.347 15.761 10.347 25.195zM376.322 270.080h-148.907c-16.582 0.503-33.049 2.935-49.067 7.253l88.747-198.4c7.363-17.007 19.51-31.505 34.963-41.732 15.453-10.223 33.547-15.74 52.077-15.868 22.833-0.009 44.763 8.913 61.106 24.858s25.804 37.649 26.362 60.476c-0.158 12.339-2.769 24.521-7.68 35.84l-57.602 127.573z" />
<glyph unicode="&#xe928;" glyph-name="swap" d="M984.642 661.265c7.185 17.235 3.195 37.065-9.99 50.22l-214.515 214.514c-17.986 18-47.176 18-65.16 0-18-18-18-47.16 0-65.16l135.855-135.855h-748.92c-25.455 0-46.080-20.624-46.080-46.080 0-25.455 20.625-46.080 46.080-46.080h860.159c18.646 0 35.446 11.22 42.571 28.441zM329.030 31.925c18.001 18 18.001 47.16 0 65.16l-135.854 135.855 748.92-0.001c25.455 0 46.080 20.625 46.080 46.080s-20.625 46.080-46.080 46.080l-860.16 0.001c-18.645 0-35.445-11.22-42.57-28.441-2.37-5.7-3.51-11.7-3.51-17.625 0-12 4.68-23.79 13.5-32.595l214.514-214.515c17.986-18 47.176-18 65.16 0z" />
<glyph unicode="&#xe929;" glyph-name="telegram" d="M401.81 308.385l-16.939-245.058c24.235 0 34.731 10.708 47.318 23.567l113.624 111.689 235.441-177.342c43.176-24.752 73.604-11.717 85.248 40.858l154.544 744.825 0.044 0.044c13.692 65.653-23.084 91.326-65.156 75.22l-908.394-357.711c-61.996-24.752-61.057-60.298-10.539-76.404l232.241-74.299 539.448 347.178c25.388 17.291 48.472 7.724 29.484-9.567l-436.364-403z" />
<glyph unicode="&#xe92a;" glyph-name="twitter" d="M1024 765.504c-38.078-16.704-78.658-27.775-120.964-33.151 43.52 25.984 76.741 66.816 92.357 116.032-40.58-24.192-85.38-41.28-133.12-50.816-38.532 41.024-93.44 66.432-153.345 66.432-116.225 0-209.793-94.336-209.793-209.984 0-16.64 1.409-32.639 4.864-47.871-174.528 8.512-328.959 92.159-432.704 219.584-18.112-31.424-28.736-67.392-28.736-106.112 0-72.704 37.44-137.152 93.248-174.464-33.728 0.64-66.816 10.432-94.848 25.856 0-0.64 0-1.472 0-2.304 0-102.016 72.768-186.752 168.192-206.272-17.088-4.672-35.712-6.911-55.040-6.911-13.44 0-27.008 0.768-39.744 3.584 27.2-83.136 104.384-144.256 196.16-146.24-71.424-55.872-162.112-89.538-260.288-89.538-17.216 0-33.728 0.768-50.24 2.882 92.992-59.97 203.2-94.208 322.048-94.208 386.304 0 597.504 320 597.504 597.376 0 9.28-0.322 18.24-0.768 27.136 41.662 29.568 76.668 66.496 105.216 108.992z" />
<glyph unicode="&#xe92b;" glyph-name="wave" d="M1024 96.474c-65.286 0-98.547 23.11-126.15 41.67-23.347 15.706-40.218 27.053-78.202 27.053-37.99 0-54.854-11.347-78.202-27.053-27.603-18.56-61.965-41.67-126.153-41.67s-98.538 23.11-126.141 41.67c-23.346 15.706-40.218 27.053-78.199 27.053s-54.845-11.347-78.191-27.053c-27.6-18.56-61.959-41.67-126.145-41.67s-99.682 23.11-127.282 41.67c-23.346 15.706-41.537 27.053-79.336 27.053v85.907c65.288 0 99.682-23.109 127.282-41.675 23.349-15.704 40.785-27.048 78.765-27.048 37.984 0 55.135 11.344 78.48 27.048 27.6 18.566 62.1 41.675 126.285 41.675s98.61-23.109 126.213-41.675c23.346-15.704 40.252-27.048 78.237-27.048s54.868 11.344 78.216 27.048c27.603 18.566 61.971 41.675 126.163 41.675 64.186 0 98.547-23.109 126.15-41.675 23.347-15.704 40.41-27.048 78.208-27.048v-85.907zM1024 374.121c-65.286 0-98.547 23.108-126.15 41.675-23.347 15.704-40.218 27.050-78.202 27.050-37.99 0-54.854-11.346-78.202-27.050-27.603-18.566-61.965-41.675-126.153-41.675s-98.538 23.108-126.141 41.675c-23.346 15.704-40.218 27.050-78.199 27.050s-54.845-11.346-78.191-27.050c-27.6-18.566-61.959-41.675-126.145-41.675s-99.682 23.108-127.282 41.675c-23.346 15.704-41.537 27.050-79.336 27.050v85.907c65.288 0 99.682-23.109 127.282-41.675 23.349-15.704 40.785-27.050 78.765-27.050 37.984 0 55.135 11.347 78.48 27.050 27.6 18.566 62.1 41.675 126.285 41.675s98.61-23.109 126.213-41.675c23.346-15.704 40.252-27.050 78.237-27.050s54.868 11.347 78.216 27.050c27.603 18.566 61.971 41.675 126.163 41.675 64.186 0 98.547-23.109 126.15-41.675 23.347-15.704 40.41-27.050 78.208-27.050v-85.906zM1024 651.769c-65.286 0-98.547 23.109-126.15 41.675-23.347 15.704-40.218 27.050-78.202 27.050-37.99 0-54.854-11.347-78.202-27.050-27.603-18.566-61.965-41.675-126.153-41.675s-98.538 23.109-126.141 41.675c-23.346 15.704-40.218 27.050-78.199 27.050s-54.845-11.347-78.191-27.050c-27.6-18.566-61.959-41.675-126.145-41.675s-99.682 23.109-127.282 41.675c-23.346 15.704-41.537 27.050-79.336 27.050v85.906c65.288 0 99.682-23.109 127.282-41.675 23.349-15.704 40.785-27.050 78.765-27.050 37.984 0 55.135 11.347 78.48 27.050 27.6 18.566 62.1 41.675 126.285 41.675s98.61-23.109 126.213-41.675c23.346-15.704 40.252-27.050 78.237-27.050s54.868 11.347 78.216 27.050c27.603 18.566 61.971 41.675 126.163 41.675 64.186 0 98.547-23.109 126.15-41.675 23.347-15.704 40.41-27.050 78.208-27.050v-85.906z" />
<glyph unicode="&#xe92c;" d="M1024 448c0-282.77-229.23-512-512-512s-512 229.23-512 512c0 282.77 229.23 512 512 512s512-229.23 512-512z" />
<glyph unicode="&#xe92d;" d="M806.789 525.575c42.844 0 77.573-34.732 77.573-77.575 0-42.844-34.729-77.578-77.573-77.578s-77.578 34.734-77.578 77.578c0 42.843 34.734 77.575 77.578 77.575z" />
<glyph unicode="&#xe92e;" d="M512 525.575c42.844 0 77.573-34.732 77.573-77.575 0-42.844-34.729-77.578-77.573-77.578s-77.575 34.734-77.575 77.578c0 42.843 34.732 77.575 77.575 77.575z" />
<glyph unicode="&#xe92f;" d="M217.213 525.575c42.844 0 77.575-34.732 77.575-77.575 0-42.844-34.732-77.578-77.575-77.578s-77.576 34.734-77.576 77.578c0 42.843 34.732 77.575 77.576 77.575z" />
<glyph unicode="&#xe9d4;" glyph-name="sun" d="M512 128c35.346 0 64-28.654 64-64v-64c0-35.346-28.654-64-64-64s-64 28.654-64 64v64c0 35.346 28.654 64 64 64zM512 768c-35.346 0-64 28.654-64 64v64c0 35.346 28.654 64 64 64s64-28.654 64-64v-64c0-35.346-28.654-64-64-64zM960 512c35.346 0 64-28.654 64-64s-28.654-64-64-64h-64c-35.348 0-64 28.654-64 64s28.652 64 64 64h64zM192 448c0-35.346-28.654-64-64-64h-64c-35.346 0-64 28.654-64 64s28.654 64 64 64h64c35.346 0 64-28.654 64-64zM828.784 221.726l45.256-45.258c24.992-24.99 24.992-65.516 0-90.508-24.994-24.992-65.518-24.992-90.51 0l-45.256 45.256c-24.992 24.99-24.992 65.516 0 90.51 24.994 24.992 65.518 24.992 90.51 0zM195.216 674.274l-45.256 45.256c-24.994 24.994-24.994 65.516 0 90.51s65.516 24.994 90.51 0l45.256-45.256c24.994-24.994 24.994-65.516 0-90.51s-65.516-24.994-90.51 0zM828.784 674.274c-24.992-24.992-65.516-24.992-90.51 0-24.992 24.994-24.992 65.516 0 90.51l45.256 45.254c24.992 24.994 65.516 24.994 90.51 0 24.992-24.994 24.992-65.516 0-90.51l-45.256-45.254zM195.216 221.726c24.992 24.992 65.518 24.992 90.508 0 24.994-24.994 24.994-65.52 0-90.51l-45.254-45.256c-24.994-24.992-65.516-24.992-90.51 0s-24.994 65.518 0 90.508l45.256 45.258zM512 704c-141.384 0-256-114.616-256-256 0-141.382 114.616-256 256-256 141.382 0 256 114.618 256 256 0 141.384-114.616 256-256 256zM512 288c-88.366 0-160 71.634-160 160s71.634 160 160 160 160-71.634 160-160-71.634-160-160-160z" />
<glyph unicode="&#xe9d9;" glyph-name="star-full" d="M1024 562.95l-353.78 51.408-158.22 320.582-158.216-320.582-353.784-51.408 256-249.538-60.432-352.352 316.432 166.358 316.432-166.358-60.434 352.352 256.002 249.538z" />
<glyph unicode="&#xe9da;" glyph-name="heart" d="M755.188 896c-107.63 0-200.258-87.554-243.164-179-42.938 91.444-135.578 179-243.216 179-148.382 0-268.808-120.44-268.808-268.832 0-301.846 304.5-380.994 512.022-679.418 196.154 296.576 511.978 387.206 511.978 679.418 0 148.392-120.43 268.832-268.812 268.832z" />
<glyph unicode="&#xea3a;" glyph-name="arrow-up2" d="M877.254 557.254l-320 320c-24.992 24.994-65.514 24.994-90.508 0l-320-320c-24.994-24.994-24.994-65.516 0-90.51 24.994-24.996 65.516-24.996 90.51 0l210.744 210.746v-613.49c0-35.346 28.654-64 64-64s64 28.654 64 64v613.49l210.746-210.746c12.496-12.496 28.876-18.744 45.254-18.744s32.758 6.248 45.254 18.746c24.994 24.994 24.994 65.514 0 90.508z" />
<glyph unicode="&#xea3c;" glyph-name="arrow-right2" d="M621.254 82.746l320 320c24.994 24.992 24.994 65.516 0 90.51l-320 320c-24.994 24.992-65.516 24.992-90.51 0-24.994-24.994-24.994-65.516 0-90.51l210.746-210.746h-613.49c-35.346 0-64-28.654-64-64s28.654-64 64-64h613.49l-210.746-210.746c-12.496-12.496-18.744-28.876-18.744-45.254s6.248-32.758 18.744-45.254c24.994-24.994 65.516-24.994 90.51 0z" />
<glyph unicode="&#xea3e;" glyph-name="arrow-down2" d="M877.254 338.746l-320-320c-24.992-24.994-65.514-24.994-90.508 0l-320 320c-24.994 24.994-24.994 65.516 0 90.51 24.994 24.996 65.516 24.996 90.51 0l210.744-210.746v613.49c0 35.346 28.654 64 64 64s64-28.654 64-64v-613.49l210.746 210.746c12.496 12.496 28.876 18.744 45.254 18.744s32.758-6.248 45.254-18.746c24.994-24.994 24.994-65.514 0-90.508z" />
<glyph unicode="&#xea40;" glyph-name="arrow-left2" d="M402.746 82.746l-320 320c-24.994 24.992-24.994 65.516 0 90.51l320 320c24.994 24.992 65.516 24.992 90.51 0 24.994-24.994 24.994-65.516 0-90.51l-210.746-210.746h613.49c35.346 0 64-28.654 64-64s-28.654-64-64-64h-613.49l210.746-210.746c12.496-12.496 18.744-28.876 18.744-45.254s-6.248-32.758-18.744-45.254c-24.994-24.994-65.516-24.994-90.51 0z" />
</font>
</defs>
</svg>
