<svg width="12" height="14" viewBox="0 0 12 14" fill="none" xmlns="http://www.w3.org/2000/svg">
<path d="M11.8989 7.96727L10.8507 3.98006C10.5435 2.81197 9.87577 1.78598 8.95372 1.06517C8.03168 0.344355 6.9082 -0.0299077 5.76188 0.00186869C4.61556 0.0336451 3.51218 0.469637 2.62712 1.24054C1.74207 2.01145 1.12613 3.07302 0.877219 4.25653L0.065726 8.11483C-0.0239104 8.54116 -0.021838 8.98334 0.0717903 9.40871C0.165419 9.83407 0.348212 10.2318 0.606675 10.5725C0.865138 10.9131 1.19267 11.1881 1.56509 11.377C1.93751 11.5659 2.34531 11.664 2.75838 11.664H3.37293C3.49955 12.3233 3.83783 12.916 4.33047 13.3417C4.82311 13.7674 5.43981 14 6.07607 14C6.71233 14 7.32903 13.7674 7.82167 13.3417C8.31431 12.916 8.6526 12.3233 8.77921 11.664H9.2415C9.66673 11.664 10.0862 11.5601 10.4672 11.3604C10.8481 11.1606 11.1802 10.8705 11.4376 10.5126C11.6949 10.1546 11.8705 9.73867 11.9506 9.29714C12.0307 8.8556 12.0132 8.40046 11.8994 7.96727H11.8989ZM6.07607 12.8305C5.735 12.829 5.4027 12.7162 5.12462 12.5074C4.84655 12.2986 4.63628 12.004 4.52259 11.664H7.62955C7.51586 12.004 7.3056 12.2986 7.02752 12.5074C6.74945 12.7162 6.41714 12.829 6.07607 12.8305ZM10.5589 9.80631C10.4051 10.0219 10.206 10.1967 9.9772 10.3166C9.74842 10.4366 9.49633 10.4985 9.24095 10.4975H2.75838C2.51057 10.4974 2.26593 10.4385 2.04252 10.3252C1.8191 10.2118 1.62263 10.0468 1.46759 9.84241C1.31254 9.63801 1.2029 9.39941 1.14674 9.14421C1.09058 8.88901 1.08934 8.62374 1.14312 8.36797L1.95406 4.50908C2.14954 3.57947 2.63333 2.74563 3.3285 2.14011C4.02368 1.53459 4.89035 1.19214 5.79074 1.1672C6.69113 1.14227 7.57357 1.43627 8.29778 2.00247C9.02199 2.56868 9.5464 3.3746 9.78765 4.2921L10.8358 8.27931C10.9051 8.53909 10.9161 8.81235 10.868 9.07741C10.8199 9.34248 10.7141 9.59205 10.5589 9.80631Z" fill="white" fill-opacity="0.54"/>
</svg>
