<svg width="18" height="18" viewBox="0 0 18 18" fill="none" xmlns="http://www.w3.org/2000/svg">
<path d="M9 2C7.61553 2 6.26215 2.41054 5.11101 3.17971C3.95987 3.94888 3.06266 5.04213 2.53285 6.32122C2.00303 7.6003 1.86441 9.00776 2.13451 10.3656C2.4046 11.7235 3.07129 12.9708 4.05026 13.9497C5.02922 14.9287 6.2765 15.5954 7.63437 15.8655C8.99224 16.1356 10.3997 15.997 11.6788 15.4672C12.9579 14.9373 14.0511 14.0401 14.8203 12.889C15.5895 11.7378 16 10.3845 16 9C15.998 7.1441 15.2599 5.36479 13.9475 4.05247C12.6352 2.74015 10.8559 2.00201 9 2V2ZM9 14.8333C7.84628 14.8333 6.71846 14.4912 5.75918 13.8502C4.79989 13.2093 4.05222 12.2982 3.61071 11.2323C3.16919 10.1664 3.05368 8.99353 3.27876 7.86197C3.50384 6.73042 4.05941 5.69102 4.87521 4.87521C5.69102 4.0594 6.73042 3.50383 7.86198 3.27875C8.99353 3.05367 10.1664 3.16919 11.2323 3.6107C12.2982 4.05221 13.2093 4.79989 13.8502 5.75917C14.4912 6.71846 14.8333 7.84627 14.8333 9C14.8316 10.5466 14.2165 12.0293 13.1229 13.1229C12.0293 14.2165 10.5466 14.8316 9 14.8333Z" fill="white" fill-opacity="0.54"/>
<path d="M9.35721 5.03533C9.06903 4.97803 8.77284 4.99055 8.48958 5.072C8.20633 5.15346 7.94294 5.30185 7.71805 5.50669C7.49317 5.71153 7.31229 5.96781 7.1882 6.25739C7.06412 6.54696 6.99987 6.86276 7 7.18244C7 7.32708 7.05265 7.46579 7.14637 7.56807C7.24008 7.67035 7.36719 7.7278 7.49973 7.7278C7.63226 7.7278 7.75937 7.67035 7.85309 7.56807C7.9468 7.46579 7.99945 7.32708 7.99945 7.18244C7.99933 7.02198 8.03164 6.86346 8.0941 6.7182C8.15655 6.57293 8.2476 6.4445 8.36076 6.34204C8.47392 6.23959 8.6064 6.16565 8.74875 6.12549C8.89111 6.08533 9.03982 6.07994 9.1843 6.1097C9.38172 6.15152 9.56322 6.25662 9.70564 6.41156C9.84806 6.5665 9.94493 6.76425 9.98387 6.97956C10.0232 7.20556 9.99604 7.43935 9.90629 7.64749C9.81653 7.85564 9.66878 8.02748 9.48414 8.13846C9.17839 8.33178 8.92574 8.61103 8.7525 8.94713C8.57927 9.28324 8.49179 9.66389 8.49918 10.0494V10.4546C8.49918 10.5993 8.55183 10.738 8.64555 10.8403C8.73926 10.9425 8.86637 11 8.99891 11C9.13144 11 9.25855 10.9425 9.35227 10.8403C9.44598 10.738 9.49863 10.5993 9.49863 10.4546V10.0494C9.49236 9.85965 9.53202 9.67141 9.6136 9.50367C9.69519 9.33594 9.81583 9.19462 9.96338 9.09395C10.3254 8.87693 10.617 8.54283 10.798 8.13759C10.9789 7.73236 11.0404 7.27589 10.974 6.83096C10.9075 6.38604 10.7164 5.9745 10.4269 5.65296C10.1374 5.33141 9.76367 5.11564 9.35721 5.03533Z" fill="white" fill-opacity="0.54"/>
<path d="M10 13C10 12.4477 9.55228 12 9 12C8.44772 12 8 12.4477 8 13C8 13.5523 8.44772 14 9 14C9.55228 14 10 13.5523 10 13Z" fill="white" fill-opacity="0.54"/>
</svg>
