<svg width="24" height="24" viewBox="0 0 24 24" fill="none" xmlns="http://www.w3.org/2000/svg">
<path d="M22 11.0909V8.36364C22 7.64032 21.7127 6.94663 21.2012 6.43516C20.6897 5.9237 19.996 5.63636 19.2727 5.63636H18.3636V4.72727C18.3636 4.00396 18.0763 3.31026 17.5648 2.7988C17.0534 2.28734 16.3597 2 15.6364 2H8.36364C7.64032 2 6.94663 2.28734 6.43516 2.7988C5.9237 3.31026 5.63636 4.00396 5.63636 4.72727V5.63636H4.72727C4.00396 5.63636 3.31026 5.9237 2.7988 6.43516C2.28734 6.94663 2 7.64032 2 8.36364V11.0909H22ZM7.45455 4.72727C7.45455 4.48617 7.55032 4.25494 7.72081 4.08445C7.8913 3.91396 8.12253 3.81818 8.36364 3.81818H15.6364C15.8775 3.81818 16.1087 3.91396 16.2792 4.08445C16.4497 4.25494 16.5455 4.48617 16.5455 4.72727V5.63636H7.45455V4.72727ZM22 12.9091V17.4545C22 18.0515 21.8824 18.6425 21.654 19.194C21.4256 19.7455 21.0908 20.2466 20.6687 20.6687C20.2466 21.0908 19.7455 21.4256 19.194 21.654C18.6425 21.8824 18.0515 22 17.4545 22H6.54545C5.94854 22 5.35746 21.8824 4.80598 21.654C4.2545 21.4256 3.75342 21.0908 3.33133 20.6687C2.90925 20.2466 2.57443 19.7455 2.346 19.194C2.11757 18.6425 2 18.0515 2 17.4545V12.9091H5.63636V13.8182C5.63636 14.0593 5.73214 14.2905 5.90263 14.461C6.07312 14.6315 6.30435 14.7273 6.54545 14.7273H8.36364C8.60474 14.7273 8.83597 14.6315 9.00646 14.461C9.17695 14.2905 9.27273 14.0593 9.27273 13.8182V12.9091H14.7273V13.8182C14.7273 14.0593 14.8231 14.2905 14.9935 14.461C15.164 14.6315 15.3953 14.7273 15.6364 14.7273H17.4545C17.6957 14.7273 17.9269 14.6315 18.0974 14.461C18.2679 14.2905 18.3636 14.0593 18.3636 13.8182V12.9091H22Z" fill="white" fill-opacity="0.54"/>
</svg>
