<svg width="14" height="10" viewBox="0 0 14 10" fill="none" xmlns="http://www.w3.org/2000/svg">
<path d="M11.8516 0.828945C10.9593 0.445263 10.0024 0.162582 9.00194 0.000679162C8.98372 -0.00244551 8.96552 0.00536322 8.95613 0.0209811C8.83307 0.226092 8.69676 0.493676 8.6013 0.703995C7.52524 0.553028 6.45469 0.553028 5.40069 0.703995C5.30521 0.489001 5.16395 0.226092 5.04034 0.0209811C5.03095 0.00588431 5.01275 -0.00192443 4.99453 0.000679162C3.99461 0.162065 3.03774 0.444745 2.14488 0.828945C2.13715 0.832068 2.13052 0.837279 2.12613 0.844042C0.311145 3.38506 -0.186054 5.86363 0.0578551 8.31146C0.0589587 8.32344 0.0661324 8.33489 0.0760655 8.34217C1.27354 9.16627 2.4335 9.66657 3.57191 9.99818C3.59013 10.0034 3.60944 9.99714 3.62103 9.98308C3.89032 9.63846 4.13037 9.27509 4.33619 8.89295C4.34834 8.87058 4.33675 8.84402 4.31192 8.83517C3.93116 8.69982 3.5686 8.53479 3.21984 8.34738C3.19226 8.33229 3.19005 8.29531 3.21543 8.27761C3.28882 8.22607 3.36223 8.17245 3.43231 8.11831C3.44499 8.10842 3.46265 8.10634 3.47756 8.11258C5.76875 9.09287 8.24923 9.09287 10.5134 8.11258C10.5283 8.10582 10.546 8.10791 10.5592 8.11779C10.6293 8.17193 10.7027 8.22607 10.7766 8.27761C10.802 8.29531 10.8003 8.33229 10.7728 8.34738C10.424 8.53843 10.0614 8.69982 9.68013 8.83466C9.65531 8.84351 9.64427 8.87058 9.65641 8.89295C9.86665 9.27455 10.1067 9.63793 10.371 9.98256C10.3821 9.99714 10.4019 10.0034 10.4201 9.99818C11.5641 9.66657 12.724 9.16627 13.9215 8.34217C13.932 8.33489 13.9386 8.32395 13.9397 8.31198C14.2316 5.48201 13.4508 3.02378 11.8698 0.84456C11.8659 0.837279 11.8593 0.832068 11.8516 0.828945ZM4.67835 6.82099C3.98854 6.82099 3.42016 6.22752 3.42016 5.49868C3.42016 4.76984 3.97752 4.17638 4.67835 4.17638C5.38468 4.17638 5.94756 4.77505 5.93651 5.49868C5.93651 6.22752 5.37916 6.82099 4.67835 6.82099ZM9.33027 6.82099C8.64048 6.82099 8.0721 6.22752 8.0721 5.49868C8.0721 4.76984 8.62944 4.17638 9.33027 4.17638C10.0366 4.17638 10.5995 4.77505 10.5885 5.49868C10.5885 6.22752 10.0366 6.82099 9.33027 6.82099Z" fill="white" fill-opacity="0.54"/>
</svg>
