<svg width="16" height="18" viewBox="0 0 16 18" fill="none" xmlns="http://www.w3.org/2000/svg">
<path d="M6.54552 13.125C6.54643 12.1698 6.81943 11.236 7.33059 10.4394C7.84176 9.64288 8.56858 9.01874 9.42077 8.64452C10.273 8.2703 11.213 8.1625 12.1241 8.3345C13.0352 8.5065 13.8772 8.95072 14.5456 9.612V2.25C14.5456 1.65326 14.3157 1.08097 13.9066 0.65901C13.4974 0.237053 12.9424 0 12.3638 0L3.6364 0C2.67232 0.00119089 1.74806 0.396661 1.06635 1.09966C0.384645 1.80267 0.00115482 2.7558 0 3.75V14.25C0.00115482 15.2442 0.384645 16.1973 1.06635 16.9003C1.74806 17.6033 2.67232 17.9988 3.6364 18H11.2728C10.0191 18 8.81666 17.4864 7.93012 16.5721C7.04357 15.6579 6.54552 14.4179 6.54552 13.125ZM3.6364 5.25C3.6364 5.05109 3.71302 4.86032 3.84941 4.71967C3.98581 4.57902 4.17079 4.5 4.36368 4.5H10.1819C10.3748 4.5 10.5598 4.57902 10.6962 4.71967C10.8326 4.86032 10.9092 5.05109 10.9092 5.25C10.9092 5.44891 10.8326 5.63968 10.6962 5.78033C10.5598 5.92098 10.3748 6 10.1819 6H4.36368C4.17079 6 3.98581 5.92098 3.84941 5.78033C3.71302 5.63968 3.6364 5.44891 3.6364 5.25ZM15.7871 17.7803C15.6507 17.9209 15.4657 17.9998 15.2729 17.9998C15.08 17.9998 14.8951 17.9209 14.7587 17.7803L13.0081 15.975C12.4897 16.3162 11.8878 16.4983 11.2728 16.5C10.6255 16.5 9.99279 16.3021 9.45459 15.9312C8.91639 15.5604 8.49691 15.0333 8.2492 14.4166C8.00149 13.7999 7.93668 13.1213 8.06296 12.4666C8.18924 11.8119 8.50094 11.2105 8.95865 10.7385C9.41635 10.2665 9.9995 9.94507 10.6344 9.81485C11.2692 9.68462 11.9272 9.75146 12.5253 10.0069C13.1233 10.2624 13.6344 10.6949 13.994 11.25C14.3537 11.805 14.5456 12.4575 14.5456 13.125C14.544 13.7592 14.3674 14.3799 14.0365 14.9145L15.7871 16.7197C15.9234 16.8604 16 17.0511 16 17.25C16 17.4489 15.9234 17.6396 15.7871 17.7803Z" fill="white"/>
</svg>
