<svg width="60" height="60" viewBox="0 0 60 60" fill="none" xmlns="http://www.w3.org/2000/svg">
<g clip-path="url(#clip0_102_896)">
<path d="M30 20C21.7275 20 15 26.7275 15 35C15 43.2725 21.7275 50 30 50C38.2725 50 45 43.2725 45 35C45 26.7275 38.2725 20 30 20ZM36.7675 38.2325C37.745 39.21 37.745 40.79 36.7675 41.7675C36.28 42.255 35.64 42.5 35 42.5C34.36 42.5 33.72 42.255 33.2325 41.7675L30 38.535L26.7675 41.7675C26.28 42.255 25.64 42.5 25 42.5C24.36 42.5 23.72 42.255 23.2325 41.7675C22.255 40.79 22.255 39.21 23.2325 38.2325L26.465 35L23.2325 31.7675C22.255 30.79 22.255 29.21 23.2325 28.2325C24.21 27.255 25.79 27.255 26.7675 28.2325L30 31.465L33.2325 28.2325C34.21 27.255 35.79 27.255 36.7675 28.2325C37.745 29.21 37.745 30.79 36.7675 31.7675L33.535 35L36.7675 38.2325Z" fill="white" fill-opacity="0.32"/>
<path d="M52.5 2.5H7.5C3.365 2.5 0 5.865 0 10V50C0 54.135 3.365 57.5 7.5 57.5H52.5C56.635 57.5 60 54.135 60 50V10C60 5.865 56.635 2.5 52.5 2.5ZM52.5 52.5H7.5C6.1225 52.5 5 51.38 5 50V15H55V50C55 51.38 53.8775 52.5 52.5 52.5Z" fill="white" fill-opacity="0.32"/>
</g>
<defs>
<clipPath id="clip0_102_896">
<rect width="60" height="60" fill="white"/>
</clipPath>
</defs>
</svg>
