<svg width="24" height="24" viewBox="0 0 24 24" fill="none" xmlns="http://www.w3.org/2000/svg">
<path d="M5.42592 12.6859L4.31408 11.5741C3.89531 11.1553 3.89531 10.4734 4.31408 10.0538L9.78817 4.57969L8.30915 3.10067C8.12513 2.91665 8.06924 2.6389 8.16899 2.39813C8.26874 2.15736 8.50521 2 8.76576 2H14.3551C14.7111 2 15 2.28892 15 2.64492V8.23424C15 8.49479 14.8426 8.7304 14.6019 8.83015C14.3611 8.9299 14.0842 8.87572 13.8993 8.68999L12.4203 7.21183L6.94622 12.6859C6.52831 13.103 5.84727 13.1064 5.42592 12.6859Z" fill="black"/>
<path d="M15.2342 22H9.64492C9.28892 22 9 21.7111 9 21.3551V15.7658C9 15.5052 9.15736 15.2696 9.39813 15.1698C9.6389 15.0701 9.91665 15.1251 10.1007 15.31L11.5797 16.7882L17.0538 11.3141C17.4726 10.8953 18.1544 10.8953 18.5741 11.3141L19.6859 12.4259C20.1047 12.8447 20.1047 13.5266 19.6859 13.9462L14.2118 19.4203L15.6908 20.8993C15.8749 21.0834 15.9308 21.3611 15.831 21.6019C15.7313 21.8426 15.4948 22 15.2342 22Z" fill="black"/>
</svg>
