<svg width="16" height="16" viewBox="0 0 16 16" fill="none" xmlns="http://www.w3.org/2000/svg">
<path d="M16 12C16 12.5304 15.7893 13.0391 15.4142 13.4142C15.0391 13.7893 14.5304 14 14 14C13.4696 14 12.9609 13.7893 12.5858 13.4142C12.2107 13.0391 12 12.5304 12 12V11.3333C12 11.1565 11.9298 10.987 11.8047 10.8619C11.6797 10.7369 11.5101 10.6667 11.3333 10.6667H10.6667V12.6667C10.6656 13.5504 10.3141 14.3976 9.68919 15.0225C9.06429 15.6474 8.21706 15.9989 7.33333 16H3.33333C2.4496 15.9989 1.60237 15.6474 0.97748 15.0225C0.352588 14.3976 0.00105857 13.5504 0 12.6667L0 7.33333H10.6667V9.33333H11.3333C11.8638 9.33333 12.3725 9.54405 12.7475 9.91912C13.1226 10.2942 13.3333 10.8029 13.3333 11.3333V12C13.3333 12.1768 13.4036 12.3464 13.5286 12.4714C13.6536 12.5964 13.8232 12.6667 14 12.6667C14.1768 12.6667 14.3464 12.5964 14.4714 12.4714C14.5964 12.3464 14.6667 12.1768 14.6667 12V5.33333C14.313 5.33333 13.9739 5.19286 13.7239 4.94281C13.4738 4.69276 13.3333 4.35362 13.3333 4V2.276L12.1953 1.138C12.0739 1.01227 12.0067 0.843864 12.0082 0.669066C12.0097 0.494268 12.0798 0.32706 12.2035 0.203454C12.3271 0.0798489 12.4943 0.00973625 12.6691 0.00821731C12.8439 0.00669836 13.0123 0.0738946 13.138 0.195333L14.8287 1.88533C15.5659 2.61858 15.9865 3.6116 16 4.65133C16 4.65667 16 12 16 12ZM10.6667 3.33333C10.6656 2.4496 10.3141 1.60237 9.68919 0.97748C9.06429 0.352588 8.21706 0.00105857 7.33333 0L3.33333 0C2.4496 0.00105857 1.60237 0.352588 0.97748 0.97748C0.352588 1.60237 0.00105857 2.4496 0 3.33333L0 6H10.6667V3.33333Z" fill="white" fill-opacity="0.54"/>
</svg>
