<svg width="14" height="14" viewBox="0 0 14 14" fill="none" xmlns="http://www.w3.org/2000/svg">
<path d="M7.00002 8.75024C6.53584 8.75024 6.09067 8.93464 5.76244 9.26287C5.43421 9.59109 5.24982 10.0363 5.24982 10.5004V14.0008H8.75022V10.5004C8.75022 10.0363 8.56582 9.59109 8.2376 9.26287C7.90937 8.93464 7.4642 8.75024 7.00002 8.75024Z" fill="white" fill-opacity="0.54"/>
<path d="M9.91932 10.5006V14.001H12.2506C12.7148 14.001 13.1599 13.8166 13.4882 13.4884C13.8164 13.1601 14.0008 12.715 14.0008 12.2508V6.92317C13.9998 6.6202 13.8819 6.32929 13.6717 6.11108L8.71518 0.74846C8.50709 0.52344 8.25667 0.34166 7.97825 0.213523C7.69984 0.0853854 7.39889 0.013405 7.09262 0.00170064C6.78636 -0.0100038 6.48079 0.0387975 6.1934 0.145312C5.90602 0.251827 5.64246 0.413964 5.4178 0.622446L5.28478 0.74846L0.335216 6.11108C0.227568 6.21986 0.142467 6.34884 0.0848001 6.49061C0.027133 6.63237 -0.00196457 6.78413 -0.000822109 6.93717V12.2508C-0.000822109 12.715 0.183574 13.1601 0.5118 13.4884C0.840026 13.8166 1.2852 14.001 1.74938 14.001H4.08065V10.5006C4.0873 9.73906 4.38708 9.00938 4.91769 8.46312C5.44831 7.91686 6.16897 7.59602 6.92997 7.56724C7.31887 7.56355 7.70468 7.63649 8.06538 7.78191C8.42608 7.92733 8.75461 8.14237 9.0322 8.41476C9.30979 8.68715 9.531 9.01155 9.68322 9.36943C9.83543 9.72732 9.91566 10.1117 9.91932 10.5006Z" fill="white" fill-opacity="0.54"/>
</svg>
