<svg width="24" height="24" viewBox="0 0 24 24" fill="none" xmlns="http://www.w3.org/2000/svg">
<path d="M21.4141 5.51562C21.7379 5.51562 22 5.25355 22 4.92969V2.58594C22 2.26207 21.7379 2 21.4141 2H19.0703C18.7464 2 18.4844 2.26207 18.4844 2.58594V3.17188H5.51562V2.58594C5.51562 2.26207 5.25355 2 4.92969 2H2.58594C2.26207 2 2 2.26207 2 2.58594V4.92969C2 5.25355 2.26207 5.51562 2.58594 5.51562H3.17188V18.4844H2.58594C2.26207 18.4844 2 18.7464 2 19.0703V21.4141C2 21.7379 2.26207 22 2.58594 22H4.92969C5.25355 22 5.51562 21.7379 5.51562 21.4141V20.8281H18.4844V21.4141C18.4844 21.7379 18.7464 22 19.0703 22H21.4141C21.7379 22 22 21.7379 22 21.4141V19.0703C22 18.7464 21.7379 18.4844 21.4141 18.4844H20.8281V5.51562H21.4141ZM19.6562 18.4844H19.0703C18.7464 18.4844 18.4844 18.7464 18.4844 19.0703V19.6562H5.51562V19.0703C5.51562 18.7464 5.25355 18.4844 4.92969 18.4844H4.34375V5.51562H4.92969C5.25355 5.51562 5.51562 5.25355 5.51562 4.92969V4.34375H18.4844V4.92969C18.4844 5.25355 18.7464 5.51562 19.0703 5.51562H19.6562V18.4844Z" fill="white" fill-opacity="0.54"/>
<path d="M10.5 6H6.5C6.22363 6 6 6.22363 6 6.5V10.5C6 10.7764 6.22363 11 6.5 11H10.5C10.7764 11 11 10.7764 11 10.5V6.5C11 6.22363 10.7764 6 10.5 6Z" fill="white" fill-opacity="0.54"/>
<path d="M17.9471 10.2782L15.9472 6.27843C15.7773 5.93958 15.2227 5.93958 15.0528 6.27843L13.0529 10.2782C12.9752 10.433 12.9835 10.617 13.0748 10.7645C13.1661 10.912 13.3268 11.0018 13.5001 11.0018H17.4999C17.6732 11.0018 17.8339 10.912 17.9252 10.7645C18.0164 10.617 18.0247 10.433 17.9471 10.2782Z" fill="white" fill-opacity="0.54"/>
<path d="M8.49992 13C7.12153 13 6 14.1215 6 15.4999C6 16.8783 7.12153 17.9998 8.49992 17.9998C9.87831 17.9998 10.9998 16.8783 10.9998 15.4999C10.9998 14.1215 9.87831 13 8.49992 13Z" fill="white" fill-opacity="0.54"/>
<path d="M17.4999 13H13.5C13.2236 13 13 13.2236 13 13.5V17.4999C13 17.7762 13.2236 17.9998 13.5 17.9998H17.4999C17.7762 17.9998 17.9998 17.7762 17.9998 17.4999V13.5C17.9998 13.2236 17.7762 13 17.4999 13Z" fill="white" fill-opacity="0.54"/>
</svg>
