<svg width="14" height="10" viewBox="0 0 14 10" fill="none" xmlns="http://www.w3.org/2000/svg">
<path d="M12.8829 1.17526L14 0.211053V0H10.1302L7.37217 6.19368L4.23442 0H0.17675V0.211053L1.48167 1.62842C1.60883 1.73316 1.67533 1.88632 1.65842 2.04053V7.61053C1.69867 7.81105 1.62633 8.01737 1.47 8.16316L0 9.77053V9.97895H4.16792V9.76789L2.69792 8.16316C2.53867 8.01684 2.46342 7.81421 2.4955 7.61053V2.79263L6.15417 9.98158H6.57942L9.72533 2.79263V8.51947C9.72533 8.67053 9.72533 8.70158 9.61567 8.80053L8.484 9.78842V10H13.9743V9.78895L12.8835 8.82526C12.7878 8.76 12.7382 8.65053 12.7587 8.54421V1.45632C12.7382 1.34947 12.7872 1.24 12.8829 1.17526Z" fill="white" fill-opacity="0.54"/>
</svg>
