<svg width="12" height="12" viewBox="0 0 12 12" fill="none" xmlns="http://www.w3.org/2000/svg">
<path fill-rule="evenodd" clip-rule="evenodd" d="M5.4 -4.19617e-05H2.4C1.0746 -4.19617e-05 0 1.07456 0 2.39996V9.59996C0 10.9254 1.0746 12 2.4 12H9.6C10.9254 12 12 10.9254 12 9.59996C12 8.23736 12 6.59996 12 6.59996C12 6.26876 11.7312 5.99996 11.4 5.99996C11.0688 5.99996 10.8 6.26876 10.8 6.59996V9.59996C10.8 10.2624 10.2624 10.8 9.6 10.8C7.602 10.8 4.3974 10.8 2.4 10.8C1.737 10.8 1.2 10.2624 1.2 9.59996C1.2 7.60196 1.2 4.39736 1.2 2.39996C1.2 1.73696 1.737 1.19996 2.4 1.19996H5.4C5.7312 1.19996 6 0.931158 6 0.599958C6 0.268758 5.7312 -4.19617e-05 5.4 -4.19617e-05ZM9.9516 1.19996H7.8C7.4688 1.19996 7.2 0.931158 7.2 0.599958C7.2 0.268758 7.4688 -4.19617e-05 7.8 -4.19617e-05H11.4C11.7312 -4.19617e-05 12 0.268758 12 0.599958V4.19996C12 4.53116 11.7312 4.79996 11.4 4.79996C11.0688 4.79996 10.8 4.53116 10.8 4.19996V2.04836L6.4242 6.42416C6.1902 6.65816 5.8098 6.65816 5.5758 6.42416C5.3412 6.19016 5.3412 5.80976 5.5758 5.57576L9.9516 1.19996Z" fill="white" fill-opacity="0.54"/>
</svg>
