<svg width="24" height="24" viewBox="0 0 24 24" fill="none" xmlns="http://www.w3.org/2000/svg">
<path d="M4 7.37276C3.70742 7.29861 3.45413 7.16123 3.27503 6.97956C3.09593 6.7979 2.99984 6.58088 3 6.35842C3 6.26336 2.94732 6.1722 2.85355 6.10498C2.75979 6.03776 2.63261 6 2.5 6C2.36739 6 2.24021 6.03776 2.14645 6.10498C2.05268 6.1722 2 6.26336 2 6.35842C2.00025 6.70697 2.14228 7.0479 2.4087 7.33947C2.67512 7.63103 3.05437 7.86058 3.5 8C3.64827 7.78366 3.81527 7.57417 4 7.37276Z" fill="white" fill-opacity="0.54"/>
<path d="M21.5476 9.71153C21.2469 9.71368 20.9527 9.62426 20.7051 9.45542C20.4575 9.28658 20.2684 9.04649 20.1635 8.76773C19.8555 7.91721 19.4061 7.12352 18.8337 6.41941V6.25838L20.1273 4.12477C20.1639 4.07171 20.1885 4.01149 20.1994 3.9482C20.2103 3.88491 20.2073 3.82004 20.1906 3.75799C20.1711 3.69768 20.1388 3.64217 20.0959 3.59514C20.053 3.5481 20.0005 3.51061 19.9419 3.48513C19.8152 3.43146 16.9475 2.2327 15.1382 3.81614C14.1351 3.52993 13.0918 3.40607 12.0488 3.44935C10.7713 3.46106 9.50885 3.72282 8.33423 4.21953C7.15961 4.71625 6.0961 5.43808 5.20506 6.34337C4.87339 6.69447 4.57086 7.07142 4.30041 7.47056C4.11961 7.73563 3.95643 8.01205 3.8119 8.29806C3.25101 9.32744 2.9719 10.4839 3.00223 11.6528C3.11265 13.524 3.91806 15.289 5.26387 16.6089V19.5521C5.26387 19.6707 5.31152 19.7845 5.39635 19.8684C5.48118 19.9523 5.59623 19.9994 5.71619 19.9994H8.72417C8.8228 20.0045 8.92041 19.9775 9.00209 19.9226C9.08377 19.8677 9.14502 19.7878 9.17649 19.6952C9.33481 19.2166 9.69667 18.6575 10.2395 18.6575H13.4057C13.7059 18.6538 13.9971 18.7588 14.2245 18.9527C14.5016 19.1988 14.7408 19.4836 14.9346 19.7981C14.9756 19.8596 15.0313 19.9102 15.0968 19.9453C15.1623 19.9804 15.2355 19.999 15.31 19.9994H17.929C17.9885 19.9997 18.0476 19.9884 18.1027 19.9662C18.1578 19.9439 18.2079 19.9111 18.2502 19.8697C18.2921 19.8279 18.3253 19.7783 18.3478 19.7238C18.3703 19.6693 18.3817 19.611 18.3813 19.5521V16.5731C18.5713 16.3271 19.001 15.759 19.2001 15.4772C19.3094 15.3197 19.4493 15.1853 19.6116 15.0817C19.7738 14.978 19.9553 14.9072 20.1454 14.8734L21.6245 14.6318C21.7307 14.6137 21.8269 14.5587 21.8957 14.4767C21.9646 14.3947 22.0015 14.2911 22 14.1845V10.1588C22 10.0402 21.9523 9.92642 21.8675 9.84254C21.7826 9.75865 21.6676 9.71153 21.5476 9.71153ZM15.5905 6.82645C15.5495 6.88798 15.4938 6.93855 15.4283 6.97367C15.3628 7.00878 15.2896 7.02736 15.2151 7.02774C15.1261 7.02874 15.0391 7.00215 14.9663 6.9517C14.0829 6.43128 13.0769 6.14904 12.0488 6.13314C11.0201 6.14545 10.0132 6.42795 9.13126 6.9517C9.03194 7.00438 8.91632 7.0185 8.80702 6.99129C8.69773 6.96408 8.60264 6.89751 8.54039 6.80461C8.47814 6.7117 8.4532 6.59916 8.47046 6.48903C8.48771 6.37889 8.54593 6.27909 8.6337 6.20918C9.66221 5.58589 10.8425 5.25042 12.0488 5.23854C13.255 5.25042 14.4353 5.58589 15.4638 6.20918C15.563 6.27477 15.6319 6.37643 15.6557 6.49204C15.6794 6.60765 15.6559 6.72784 15.5905 6.82645ZM17.2505 9.26423C17.1163 9.26423 16.9852 9.22488 16.8736 9.15115C16.762 9.07743 16.675 8.97264 16.6237 8.85004C16.5723 8.72744 16.5589 8.59254 16.5851 8.46239C16.6112 8.33224 16.6759 8.21268 16.7708 8.11885C16.8656 8.02502 16.9865 7.96111 17.1182 7.93523C17.2498 7.90934 17.3862 7.92262 17.5102 7.97341C17.6341 8.02419 17.7401 8.11019 17.8147 8.22052C17.8892 8.33086 17.929 8.46058 17.929 8.59328C17.929 8.77123 17.8575 8.94189 17.7303 9.06771C17.603 9.19354 17.4305 9.26423 17.2505 9.26423Z" fill="white" fill-opacity="0.54"/>
</svg>
