<svg width="16" height="16" viewBox="0 0 16 16" fill="none" xmlns="http://www.w3.org/2000/svg">
<path d="M14.9929 7.99202C14.486 7.99649 14.06 8.37242 13.9948 8.87289C13.5118 12.1578 10.4452 14.431 7.14545 13.9502C3.84565 13.4695 1.56214 10.4167 2.0451 7.13179C2.52807 3.84686 5.59462 1.57365 8.89442 2.05444C10.0192 2.21832 11.0747 2.69494 11.9395 3.42951L11.182 4.1836C10.9202 4.44423 10.9203 4.86678 11.1821 5.12735C11.3083 5.25291 11.4795 5.32323 11.6579 5.32273H14.7321C15.1023 5.32273 15.4025 5.02396 15.4025 4.65541V1.59505C15.4024 1.22649 15.1022 0.927793 14.732 0.927855C14.5543 0.927887 14.3838 0.998175 14.2582 1.12324L13.3653 2.01211C10.0433 -0.917779 4.96441 -0.612102 2.02122 2.69491C-0.921964 6.00193 -0.61484 11.058 2.70711 13.9879C6.02907 16.9178 11.108 16.6121 14.0512 13.3051C15.0872 12.1409 15.76 10.7013 15.987 9.16252C16.0759 8.6116 15.6993 8.09324 15.1459 8.00478C15.0953 7.99668 15.0441 7.99242 14.9929 7.99202Z" fill="white" fill-opacity="0.54"/>
</svg>
