<svg width="20" height="20" viewBox="0 0 20 20" fill="none" xmlns="http://www.w3.org/2000/svg">
<path d="M2.43848 12H6.32972e-05V11.2138C-0.00526854 10.1112 0.32634 9.02852 0.958539 8.0845C1.59074 7.14048 2.49912 6.37154 3.58412 5.86198C4.65428 5.38789 5.81227 5.09568 7 5C6.47448 5.57781 5.94896 6.1935 5.43395 6.83762C4.26208 8.47208 3.25938 10.2001 2.43848 12Z" fill="white" fill-opacity="0.54"/>
<path d="M13.1908 14.5555C11.5475 15.7325 9.80988 16.7387 8 17.5615V19.9999H8.7862C9.88882 20.0053 10.9715 19.6737 11.9155 19.0415C12.8595 18.4093 13.6285 17.5009 14.138 16.4159C14.6121 15.3457 14.9043 14.1877 15 13C14.4506 13.5255 13.8349 14.0405 13.1908 14.5555Z" fill="white" fill-opacity="0.54"/>
<path d="M17.4742 0C13.8415 0.121059 10.2289 2.7541 6.40503 8.07062C5.46778 9.50766 4.66279 11.0272 4 12.6103H4.50314C5.27737 12.6155 6.01871 12.9248 6.56806 13.4718C7.11741 14.0188 7.43099 14.7598 7.44151 15.5359V16C9.01255 15.3318 10.5212 14.525 11.9497 13.5889C17.2327 9.78562 19.8591 6.16393 20 2.4918C20 0.746532 19.2956 0 17.4742 0ZM12.8855 9.23077C12.4711 9.23277 12.0655 9.1114 11.72 8.88205C11.3744 8.65269 11.1046 8.32568 10.9446 7.94243C10.7847 7.55919 10.7418 7.13696 10.8214 6.72926C10.901 6.32155 11.0996 5.94672 11.3919 5.65225C11.6842 5.35778 12.0571 5.15692 12.4634 5.07514C12.8697 4.99335 13.2911 5.03431 13.6741 5.19283C14.0572 5.35135 14.3847 5.62029 14.6151 5.96558C14.8455 6.31087 14.9685 6.71696 14.9686 7.13241C14.9686 7.68718 14.7494 8.21939 14.3591 8.61262C13.9687 9.00585 13.4389 9.2281 12.8855 9.23077Z" fill="white" fill-opacity="0.54"/>
<path d="M1.16925 19.7884C2.10864 19.6271 4.36718 19.1535 5.16667 18.3977C5.42005 18.1693 5.62456 17.8911 5.76767 17.5803C5.91079 17.2695 5.98951 16.9324 5.99902 16.5899C6.00853 16.2473 5.94862 15.9063 5.82297 15.5879C5.69732 15.2695 5.50856 14.9802 5.26824 14.7379C5.02792 14.4956 4.7411 14.3052 4.42532 14.1785C4.10954 14.0518 3.77145 13.9914 3.43172 14.001C3.09199 14.0106 2.75777 14.09 2.44952 14.2343C2.14126 14.3786 1.86544 14.5848 1.63894 14.8403C0.889427 15.5961 0.419729 17.8636 0.259832 18.8209L0 20L1.16925 19.7884Z" fill="white" fill-opacity="0.54"/>
</svg>
