<svg width="16" height="16" viewBox="0 0 16 16" fill="none" xmlns="http://www.w3.org/2000/svg">
<path d="M12.8887 9.77806C12.3843 9.77819 11.8875 9.90103 11.4412 10.136C10.9948 10.371 10.6124 10.711 10.3267 11.1267L5.9934 9.17006C6.29729 8.42379 6.29968 7.58872 6.00007 6.84072L10.3294 4.87472C10.7516 5.48722 11.3793 5.9281 12.0987 6.11739C12.8181 6.30668 13.5815 6.23184 14.2505 5.90644C14.9194 5.58103 15.4496 5.02663 15.7448 4.34381C16.0399 3.66098 16.0806 2.89498 15.8593 2.18475C15.6381 1.47452 15.1696 0.86713 14.5388 0.472763C13.9081 0.0783956 13.1568 -0.0768203 12.4214 0.0352743C11.686 0.147369 11.0152 0.519348 10.5306 1.08373C10.0459 1.64811 9.77968 2.3675 9.78007 3.11139C9.78006 3.28834 9.795 3.46496 9.82474 3.63939L5.23074 5.72472C4.78786 5.31168 4.23407 5.03686 3.63729 4.93396C3.0405 4.83107 2.42665 4.90457 1.87103 5.14546C1.31541 5.38636 0.842165 5.78416 0.509336 6.29009C0.176506 6.79603 -0.00143933 7.38809 -0.00267903 7.99369C-0.00391872 8.59928 0.171602 9.19207 0.502357 9.69936C0.833112 10.2067 1.30472 10.6064 1.85935 10.8496C2.41398 11.0927 3.02752 11.1687 3.62473 11.0683C4.22193 10.9678 4.77684 10.6953 5.2214 10.2841L9.8214 12.3621C9.71328 12.9908 9.80103 13.6375 10.0728 14.2147C10.3445 14.7918 10.7871 15.2715 11.3405 15.5888C11.894 15.906 12.5316 16.0454 13.1669 15.9882C13.8023 15.9309 14.4047 15.6798 14.8925 15.2687C15.3804 14.8576 15.7301 14.3066 15.8943 13.6901C16.0584 13.0737 16.0292 12.4217 15.8104 11.8224C15.5916 11.2232 15.1939 10.7056 14.6712 10.34C14.1485 9.97429 13.526 9.77813 12.8881 9.77806H12.8887Z" fill="white" fill-opacity="0.54"/>
</svg>
