<svg width="24" height="24" viewBox="0 0 24 24" fill="none" xmlns="http://www.w3.org/2000/svg">
<path d="M12 2C10.0222 2 8.08879 2.58649 6.4443 3.6853C4.79981 4.78412 3.51809 6.3459 2.76121 8.17316C2.00433 10.0004 1.8063 12.0111 2.19215 13.9509C2.578 15.8907 3.53041 17.6725 4.92894 19.0711C6.32746 20.4696 8.10929 21.422 10.0491 21.8078C11.9889 22.1937 13.9996 21.9957 15.8268 21.2388C17.6541 20.4819 19.2159 19.2002 20.3147 17.5557C21.4135 15.9112 22 13.9778 22 12C22 9.34783 20.9464 6.80429 19.0711 4.92893C17.1957 3.05357 14.6522 2 12 2V2ZM13.25 19.39V18.25C13.25 17.9185 13.1183 17.6005 12.8839 17.3661C12.6495 17.1317 12.3315 17 12 17C11.6685 17 11.3505 17.1317 11.1161 17.3661C10.8817 17.6005 10.75 17.9185 10.75 18.25V19.39C9.21732 19.127 7.80386 18.3954 6.70425 17.2957C5.60465 16.1961 4.87298 14.7827 4.61 13.25H5.75C6.08152 13.25 6.39947 13.1183 6.63389 12.8839C6.86831 12.6495 7 12.3315 7 12C7 11.6685 6.86831 11.3505 6.63389 11.1161C6.39947 10.8817 6.08152 10.75 5.75 10.75H4.61C4.87298 9.21732 5.60465 7.80386 6.70425 6.70425C7.80386 5.60464 9.21732 4.87298 10.75 4.61V5.75C10.75 6.08152 10.8817 6.39946 11.1161 6.63388C11.3505 6.8683 11.6685 7 12 7C12.3315 7 12.6495 6.8683 12.8839 6.63388C13.1183 6.39946 13.25 6.08152 13.25 5.75V4.61C14.7827 4.87298 16.1961 5.60464 17.2958 6.70425C18.3954 7.80386 19.127 9.21732 19.39 10.75H18.25C17.9185 10.75 17.6005 10.8817 17.3661 11.1161C17.1317 11.3505 17 11.6685 17 12C17 12.3315 17.1317 12.6495 17.3661 12.8839C17.6005 13.1183 17.9185 13.25 18.25 13.25H19.39C19.127 14.7827 18.3954 16.1961 17.2958 17.2957C16.1961 18.3954 14.7827 19.127 13.25 19.39Z" fill="white" fill-opacity="0.54"/>
<path d="M15 12C15 12.2987 14.8814 12.5851 14.6702 12.7963C14.459 13.0075 14.1725 13.1261 13.8739 13.1261H13.1261V13.8739C13.1261 14.1725 13.0075 14.459 12.7963 14.6702C12.5851 14.8814 12.2987 15 12 15C11.7013 15 11.4149 14.8814 11.2037 14.6702C10.9925 14.459 10.8739 14.1725 10.8739 13.8739V13.1261H10.1261C9.82746 13.1261 9.54102 13.0075 9.32983 12.7963C9.11865 12.5851 9 12.2987 9 12C9 11.7013 9.11865 11.4149 9.32983 11.2037C9.54102 10.9925 9.82746 10.8739 10.1261 10.8739H10.8739V10.1261C10.8739 9.82746 10.9925 9.54102 11.2037 9.32983C11.4149 9.11865 11.7013 9 12 9C12.2987 9 12.5851 9.11865 12.7963 9.32983C13.0075 9.54102 13.1261 9.82746 13.1261 10.1261V10.8739H13.8739C14.1725 10.8739 14.459 10.9925 14.6702 11.2037C14.8814 11.4149 15 11.7013 15 12Z" fill="white" fill-opacity="0.54"/>
</svg>
