<svg width="24" height="24" viewBox="0 0 24 24" fill="none" xmlns="http://www.w3.org/2000/svg">
<path d="M21.16 15.3301C21.0327 15.3272 20.9071 15.3 20.79 15.2501L19.13 14.4101C19.031 14.3621 18.9424 14.2949 18.8695 14.2125C18.7967 14.13 18.7409 14.0338 18.7056 13.9296C18.6702 13.8254 18.6559 13.7152 18.6636 13.6054C18.6712 13.4956 18.7006 13.3884 18.75 13.2901C18.8507 13.0936 19.0246 12.9446 19.2342 12.8754C19.4438 12.8062 19.6722 12.8222 19.87 12.9201L21.54 13.7501C21.6382 13.7989 21.7258 13.8667 21.7976 13.9496C21.8695 14.0325 21.9242 14.1287 21.9586 14.2329C21.993 14.337 22.0064 14.447 21.9981 14.5563C21.9898 14.6657 21.9598 14.7723 21.91 14.8701C21.8416 15.0101 21.7348 15.1277 21.6019 15.2092C21.4691 15.2906 21.3158 15.3326 21.16 15.3301Z" fill="white" fill-opacity="0.54"/>
<path d="M19.87 7.75002L21.54 6.92002C21.6382 6.87119 21.7258 6.80337 21.7976 6.7205C21.8695 6.63762 21.9242 6.54133 21.9586 6.43718C21.993 6.33303 22.0064 6.2231 21.9981 6.11374C21.9898 6.00437 21.9598 5.89775 21.91 5.80002C21.8112 5.60181 21.638 5.45067 21.4282 5.3795C21.2185 5.30833 20.9891 5.32289 20.79 5.42002L19.13 6.26002C19.0322 6.30861 18.9449 6.37599 18.8731 6.45832C18.8013 6.54065 18.7464 6.63632 18.7116 6.73985C18.6768 6.84339 18.6627 6.95277 18.6702 7.06175C18.6776 7.17074 18.7064 7.27718 18.755 7.37502C18.8036 7.47285 18.871 7.56016 18.9533 7.63195C19.0357 7.70375 19.1313 7.75862 19.2349 7.79344C19.3384 7.82826 19.4478 7.84235 19.5568 7.8349C19.6658 7.82745 19.7722 7.79861 19.87 7.75002Z" fill="white" fill-opacity="0.54"/>
<path d="M22 10.3299C22.0001 10.2201 21.9783 10.1113 21.9359 10.01C21.8936 9.90863 21.8316 9.81668 21.7534 9.73948C21.6753 9.66227 21.5826 9.60134 21.4807 9.56022C21.3789 9.51911 21.2699 9.49861 21.16 9.49994H19.5C19.2799 9.49994 19.0688 9.58738 18.9131 9.74304C18.7575 9.8987 18.67 10.1098 18.67 10.3299C18.67 10.551 18.7572 10.7632 18.9125 10.9204C19.0679 11.0776 19.279 11.1673 19.5 11.1699H21.16C21.3828 11.1699 21.5965 11.0814 21.754 10.9239C21.9115 10.7664 22 10.5527 22 10.3299Z" fill="white" fill-opacity="0.54"/>
<path d="M17 17.83V2.83C17 2.60987 16.9126 2.39876 16.7569 2.2431C16.6012 2.08745 16.3901 2 16.17 2C15.9489 1.99998 15.7368 2.08711 15.5795 2.24248C15.4223 2.39786 15.3326 2.60896 15.33 2.83C15.33 5.29 13.18 6.17 11.17 6.17H5.33C4.44683 6.17 3.59983 6.52084 2.97533 7.14533C2.35084 7.76983 2 8.61683 2 9.5L2 11.17C2 12.0532 2.35084 12.9002 2.97533 13.5247C3.59983 14.1492 4.44683 14.5 5.33 14.5H11.17C13.17 14.5 15.33 15.38 15.33 17.83C15.3326 18.052 15.4219 18.2641 15.5789 18.4211C15.7359 18.5781 15.948 18.6674 16.17 18.67C16.391 18.6674 16.6021 18.5777 16.7575 18.4205C16.9129 18.2632 17 18.0511 17 17.83Z" fill="white" fill-opacity="0.54"/>
<path d="M8.82005 16.17H5.33005C4.94141 16.1582 4.55547 16.1012 4.18005 16L6.26005 20.65C6.43261 21.0486 6.71731 21.3884 7.0795 21.6281C7.44169 21.8677 7.86575 21.997 8.30005 22C8.83519 22.0002 9.34918 21.7911 9.73223 21.4174C10.1153 21.0437 10.337 20.535 10.3501 20C10.3464 19.7108 10.2852 19.4253 10.1701 19.16L8.82005 16.17Z" fill="white" fill-opacity="0.54"/>
</svg>
