<svg width="10" height="10" viewBox="0 0 10 10" fill="none" xmlns="http://www.w3.org/2000/svg">
<path d="M9.61564 2.91733C9.68581 2.74902 9.64684 2.55537 9.51808 2.4269L7.42321 0.332032C7.24757 0.15625 6.96251 0.15625 6.78688 0.332032C6.6111 0.507814 6.6111 0.79258 6.78688 0.968359L8.11359 2.29507L0.799915 2.29507C0.551332 2.29507 0.349915 2.49648 0.349915 2.74507C0.349915 2.99365 0.551332 3.19507 0.799915 3.19507L9.19991 3.19507C9.382 3.19507 9.54606 3.0855 9.61564 2.91733Z" fill="white"/>
<path d="M3.21318 9.06323C3.38897 8.88745 3.38897 8.60268 3.21318 8.4269L1.88648 7.10019L9.20015 7.1002C9.44873 7.1002 9.65015 6.89878 9.65015 6.6502C9.65015 6.40161 9.44873 6.2002 9.20015 6.2002L0.800147 6.20019C0.618068 6.20019 0.454004 6.30976 0.384425 6.47793C0.361279 6.53359 0.350147 6.59219 0.350147 6.65005C0.350147 6.76724 0.395849 6.88237 0.481982 6.96836L2.57685 9.06323C2.75249 9.23901 3.03755 9.23901 3.21318 9.06323Z" fill="white"/>
</svg>
