<svg width="16" height="12" viewBox="0 0 16 12" fill="none" xmlns="http://www.w3.org/2000/svg">
<path d="M16 11.4926C14.9799 11.4926 14.4602 11.1315 14.0289 10.8415C13.6641 10.5961 13.4005 10.4188 12.807 10.4188C12.2134 10.4188 11.9499 10.5961 11.5851 10.8415C11.1538 11.1315 10.6169 11.4926 9.61396 11.4926C8.61101 11.4926 8.07431 11.1315 7.64301 10.8415C7.27823 10.5961 7.0146 10.4188 6.42115 10.4188C5.8277 10.4188 5.56419 10.5961 5.19941 10.8415C4.76816 11.1315 4.2313 11.4926 3.2284 11.4926C2.2255 11.4926 1.67087 11.1315 1.23962 10.8415C0.874846 10.5961 0.590604 10.4188 0 10.4188V9.07651C1.02013 9.07651 1.55753 9.43759 1.98878 9.72768C2.35361 9.97305 2.62604 10.1503 3.21949 10.1503C3.81299 10.1503 4.08097 9.97305 4.44574 9.72768C4.87699 9.43759 5.41605 9.07651 6.41895 9.07651C7.42185 9.07651 7.95973 9.43759 8.39103 9.72768C8.75581 9.97305 9.01997 10.1503 9.61348 10.1503C10.207 10.1503 10.4708 9.97305 10.8356 9.72768C11.2669 9.43759 11.8039 9.07651 12.8069 9.07651C13.8098 9.07651 14.3467 9.43759 14.778 9.72768C15.1428 9.97305 15.4094 10.1503 16 10.1503V11.4926Z" fill="white" fill-opacity="0.54"/>
<path d="M16 7.15436C14.9799 7.15436 14.4602 6.79329 14.0289 6.50319C13.6641 6.25782 13.4005 6.08054 12.807 6.08054C12.2134 6.08054 11.9499 6.25782 11.5851 6.50319C11.1538 6.79329 10.6169 7.15436 9.61396 7.15436C8.61101 7.15436 8.07431 6.79329 7.64301 6.50319C7.27823 6.25782 7.0146 6.08054 6.42115 6.08054C5.8277 6.08054 5.56419 6.25782 5.19941 6.50319C4.76816 6.79329 4.2313 7.15436 3.2284 7.15436C2.2255 7.15436 1.67087 6.79329 1.23962 6.50319C0.874846 6.25782 0.590604 6.08054 0 6.08054V4.73825C1.02013 4.73825 1.55753 5.09933 1.98878 5.38942C2.35361 5.63479 2.62604 5.81208 3.21949 5.81208C3.81299 5.81208 4.08097 5.63479 4.44574 5.38942C4.87699 5.09933 5.41605 4.73825 6.41895 4.73825C7.42185 4.73825 7.95973 5.09933 8.39103 5.38942C8.75581 5.63479 9.01997 5.81208 9.61348 5.81208C10.207 5.81208 10.4708 5.63479 10.8356 5.38942C11.2669 5.09933 11.8039 4.73825 12.8069 4.73825C13.8098 4.73825 14.3467 5.09933 14.778 5.38942C15.1428 5.63479 15.4094 5.81208 16 5.81208V7.15436Z" fill="white" fill-opacity="0.54"/>
<path d="M16 2.81611C14.9799 2.81611 14.4602 2.45503 14.0289 2.16494C13.6641 1.91957 13.4005 1.74228 12.807 1.74228C12.2134 1.74228 11.9499 1.91957 11.5851 2.16494C11.1538 2.45503 10.6169 2.81611 9.61396 2.81611C8.61101 2.81611 8.07431 2.45503 7.64301 2.16494C7.27823 1.91957 7.0146 1.74228 6.42115 1.74228C5.8277 1.74228 5.56419 1.91957 5.19941 2.16494C4.76816 2.45503 4.2313 2.81611 3.2284 2.81611C2.2255 2.81611 1.67087 2.45503 1.23962 2.16494C0.874846 1.91957 0.590604 1.74228 0 1.74228V0.4C1.02013 0.4 1.55753 0.761073 1.98878 1.05117C2.35361 1.29654 2.62604 1.47383 3.21949 1.47383C3.81299 1.47383 4.08097 1.29654 4.44574 1.05117C4.87699 0.761073 5.41605 0.4 6.41895 0.4C7.42185 0.4 7.95973 0.761073 8.39103 1.05117C8.75581 1.29654 9.01997 1.47383 9.61348 1.47383C10.207 1.47383 10.4708 1.29654 10.8356 1.05117C11.2669 0.761073 11.8039 0.4 12.8069 0.4C13.8098 0.4 14.3467 0.761073 14.778 1.05117C15.1428 1.29654 15.4094 1.47383 16 1.47383V2.81611Z" fill="white" fill-opacity="0.54"/>
</svg>
